<?xml version="1.0" encoding="utf-8"?>
<!-- Generator: Adobe Illustrator 25.2.0, SVG Export Plug-In . SVG Version: 6.00 Build 0)  -->
<svg version="1.1" id="Capa_1" xmlns="http://www.w3.org/2000/svg" xmlns:xlink="http://www.w3.org/1999/xlink" x="0px" y="0px"
	 viewBox="0 0 25 25" style="enable-background:new 0 0 25 25;" xml:space="preserve">
<style type="text/css">
	.st0{fill:#212529;}
</style>
<g>
	<g>
		<path class="st0" d="M12.5,13.9c-1.3,0-2.3,1-2.3,2.3c0,0.7,0.4,1.4,0.9,1.9v1.9c0,0.7,0.6,1.4,1.4,1.4c0.7,0,1.4-0.6,1.4-1.4
			v-1.9c0.6-0.5,0.9-1.1,0.9-1.9C14.8,14.9,13.8,13.9,12.5,13.9z M13,17.5v2.4c0,0.3-0.2,0.5-0.5,0.5c-0.3,0-0.5-0.2-0.5-0.5v-2.4
			c-0.6-0.2-0.9-0.7-0.9-1.3c0-0.7,0.6-1.4,1.4-1.4c0.7,0,1.4,0.6,1.4,1.4C13.9,16.9,13.5,17.3,13,17.5z"/>
		<path class="st0" d="M19.4,10.2V6.9c0-3.8-3.1-6.9-6.9-6.9C8.7,0,5.6,3.1,5.6,6.9v3.2c-1.6,0-2.8,1.2-2.8,2.8v9.3
			C2.8,23.8,4,25,5.6,25h13.9c1.6,0,2.8-1.2,2.8-2.8V13C22.2,11.5,21,10.2,19.4,10.2z M6.5,6.9c0-3.3,2.7-6,6-6s6,2.7,6,6v3.2h-0.9
			V6.9c0-2.8-2.3-5.1-5.1-5.1S7.4,4.2,7.4,6.9v3.2H6.5V6.9z M16.7,6.9v3.2H8.3V6.9c0-2.3,1.9-4.2,4.2-4.2S16.7,4.6,16.7,6.9z
			 M21.3,22.2c0,1-0.8,1.9-1.9,1.9H5.6c-1,0-1.9-0.8-1.9-1.9V13c0-1,0.8-1.9,1.9-1.9h13.9c1,0,1.9,0.8,1.9,1.9V22.2z"/>
	</g>
</g>
</svg>
