<?xml version="1.0" encoding="utf-8"?>
<!-- Generator: Adobe Illustrator 25.2.0, SVG Export Plug-In . SVG Version: 6.00 Build 0)  -->
<svg version="1.1" id="Capa_1" xmlns="http://www.w3.org/2000/svg" xmlns:xlink="http://www.w3.org/1999/xlink" x="0px" y="0px"
	 viewBox="0 0 25 25" style="enable-background:new 0 0 25 25;" xml:space="preserve">
<style type="text/css">
	.st0{fill:#212529;}
</style>
<g>
	<path class="st0" d="M5.3,24.1c-1.2,1.2-3.2,1.2-4.4,0s-1.2-3.2,0-4.4c1.2-1.2,3.2-1.2,4.4,0C6.6,20.9,6.6,22.9,5.3,24.1z
		 M2.3,12.5l0.3,3.1c3.7-0.3,7.1,3.1,6.8,6.8l3.1,0.3c0.2-2.8-0.7-5.5-2.7-7.5C7.8,13.3,5.1,12.3,2.3,12.5z M2.4,6.3l0.2,3.1
		C6,9.2,9.5,10.5,12,13s3.8,5.9,3.6,9.4l3.1,0.2c0.2-4.4-1.5-8.7-4.6-11.8S6.8,6.1,2.4,6.3z M2.4,0l0.1,3.1C7.7,3,12.7,5,16.4,8.6
		c3.7,3.7,5.7,8.6,5.5,13.9l3.1,0.1c0.2-6-2.1-11.9-6.4-16.2C14.3,2.1,8.4-0.2,2.4,0z"/>
</g>
</svg>
