<?xml version="1.0" encoding="utf-8"?>
<!-- Generator: Adobe Illustrator 25.2.0, SVG Export Plug-In . SVG Version: 6.00 Build 0)  -->
<svg version="1.1" id="Слой_1" xmlns="http://www.w3.org/2000/svg" xmlns:xlink="http://www.w3.org/1999/xlink" x="0px" y="0px"
	 viewBox="0 0 25 25" style="enable-background:new 0 0 25 25;" xml:space="preserve">
<style type="text/css">
	.st0{fill:#444444;}
</style>
<path class="st0" d="M7.7,10.1c-0.2,0.2-0.5,0.4-0.7,0.4c0-0.3,0.1-0.6,0.3-0.8C7.4,9.4,7.8,9.3,8,9.3C8,9.6,7.9,9.8,7.7,10.1
	L7.7,10.1z M8,10.6c-0.4,0-0.8,0.2-1,0.2s-0.5-0.2-0.8-0.2c-0.4,0-0.8,0.2-1,0.6c-0.4,0.8-0.1,1.9,0.3,2.5c0.2,0.3,0.5,0.7,0.8,0.7
	s0.4-0.2,0.8-0.2s0.5,0.2,0.8,0.2c0.3,0,0.6-0.3,0.8-0.6C8.9,13.3,9,13.1,9,12.9c0,0-0.7-0.3-0.7-1c0-0.6,0.5-0.9,0.5-1
	C8.6,10.6,8.2,10.6,8,10.6L8,10.6z M10.4,9.6v4.6h0.7v-1.6h1c0.9,0,1.5-0.6,1.5-1.5S13,9.6,12.1,9.6L10.4,9.6z M11.1,10.2h0.8
	c0.6,0,1,0.3,1,0.9c0,0.6-0.4,0.9-1,0.9h-0.8V10.2z M14.9,14.3c0.4,0,0.9-0.2,1-0.6l0,0v0.6h0.7v-2.4c0-0.7-0.5-1.1-1.3-1.1
	c-0.8,0-1.3,0.4-1.3,1h0.6c0.1-0.3,0.3-0.5,0.7-0.5s0.7,0.2,0.7,0.6v0.3l-1,0.1c-0.8,0.1-1.3,0.4-1.3,1S14.2,14.3,14.9,14.3
	L14.9,14.3z M15.1,13.8c-0.4,0-0.6-0.2-0.6-0.5s0.2-0.5,0.7-0.5H16v0.3C15.9,13.4,15.5,13.8,15.1,13.8L15.1,13.8z M17.5,15.6
	c0.7,0,1-0.3,1.3-1.1l1.2-3.5h-0.7l-0.8,2.7l0,0l-0.9-2.7h-0.7l1.2,3.4L18,14.6c-0.1,0.3-0.3,0.5-0.6,0.5c-0.1,0-0.2,0-0.2,0v0.6
	C17.2,15.6,17.4,15.6,17.5,15.6L17.5,15.6z"/>
</svg>
