<?xml version="1.0" encoding="utf-8"?>
<!-- Generator: Adobe Illustrator 25.2.0, SVG Export Plug-In . SVG Version: 6.00 Build 0)  -->
<svg version="1.1" id="Pinterest" xmlns="http://www.w3.org/2000/svg" xmlns:xlink="http://www.w3.org/1999/xlink" x="0px" y="0px"
	 viewBox="0 0 25 25" style="enable-background:new 0 0 25 25;" xml:space="preserve">
<style type="text/css">
	.st0{fill:#C8232C;}
	.st1{fill:#FFFFFF;}
</style>
<rect x="0" y="0" class="st0" width="25" height="25"/>
<path class="st1" d="M12.5,5C8.4,5,5,8.4,5,12.5c0,4.1,3.4,7.5,7.5,7.5s7.5-3.4,7.5-7.5C20,8.4,16.6,5,12.5,5z M16.1,11.6
	c-0.1,1.1-0.9,2.3-1.6,2.7c-0.7,0.4-1.5,0.4-1.9,0.1c0,0-0.6-0.3-0.7-0.4c0,0-0.2,1-0.4,1.6c-0.2,0.6-0.6,1.2-1,1.5
	c-0.2-0.6-0.1-1.9,0.3-3.1c0.3-1.2,0.5-1.8,0.5-1.8s-0.4-0.8,0-1.7c0.4-0.9,1.2-0.7,1.3-0.5c0.1,0.1,0.4,0.2,0.2,1.1
	s-0.6,1.8-0.3,2.2c0.2,0.3,1.2,0.5,1.7-0.3c0.5-0.8,0.6-1.1,0.7-2.3c0,0,0-1.9-1.7-2c-1.4-0.1-2.1,0.5-2.5,0.9
	c-0.5,0.5-0.8,1.7-0.4,2.4c0.2,0.3,0.2,0.5,0.2,0.7c0,0.2-0.2,0.4-0.2,0.4S9,13,8.9,11.5C8.8,10,9.5,9.2,10.2,8.7
	C10.8,8.2,11.9,7.6,14,8C15.4,8.4,16.3,9.6,16.1,11.6z"/>
</svg>
