<?xml version="1.0" encoding="utf-8"?>
<!-- Generator: Adobe Illustrator 25.2.0, SVG Export Plug-In . SVG Version: 6.00 Build 0)  -->
<svg version="1.1" id="Layer_1" xmlns="http://www.w3.org/2000/svg" xmlns:xlink="http://www.w3.org/1999/xlink" x="0px" y="0px"
	 viewBox="0 0 25 25" style="enable-background:new 0 0 25 25;" xml:space="preserve">
<style type="text/css">
	.st0{fill:#444444;}
</style>
<g>
	<path class="st0" d="M20,12.5c0,1.1,0,2.1,0,3.2c0,1.9-1.1,3.3-2.6,3.9c-0.6,0.3-1.2,0.4-1.9,0.4c-2,0-4.1,0-6.1,0
		c-1.5,0-2.8-0.7-3.7-1.9C5.2,17.4,5,16.7,5,15.9c0-2.2,0-4.3,0-6.5c0-1.8,0.9-3,2.4-3.8C8.1,5.2,8.8,5,9.5,5c2,0,4,0,5.9,0
		c1.5,0,2.8,0.6,3.8,1.8C19.7,7.5,20,8.4,20,9.2C20,10.2,20,11.4,20,12.5z M6.1,12.5c0,1.1,0,2.2,0,3.3c0,0.5,0.1,1,0.4,1.4
		c0.7,1.1,1.7,1.6,3,1.7c2,0,4.1,0,6.1,0c0.5,0,1-0.1,1.4-0.3c1.2-0.6,1.9-1.5,1.9-2.9c0-2.1,0-4.3,0-6.4c0-0.6-0.2-1.2-0.5-1.7
		c-0.7-0.9-1.7-1.4-2.8-1.4c-2,0-4.1,0-6.1,0c-0.4,0-0.8,0.1-1.3,0.2c-1.1,0.4-2.1,1.5-2.1,3C6.1,10.4,6.1,11.4,6.1,12.5z"/>
	<path class="st0" d="M12.5,15.6c-2,0-3.5-1.6-3.5-3.5s1.6-3.5,3.5-3.5s3.5,1.6,3.5,3.5S14.4,15.6,12.5,15.6z M12.5,14.5
		c1.3,0,2.4-1.1,2.4-2.4c0-1.3-1.1-2.4-2.4-2.4s-2.4,1.1-2.4,2.4C10.1,13.5,11.2,14.5,12.5,14.5z"/>
	<path class="st0" d="M16.4,7.7c0.4,0,0.7,0.3,0.7,0.8c0,0.4-0.3,0.8-0.7,0.8c-0.4,0-0.7-0.3-0.7-0.8S16,7.7,16.4,7.7z"/>
</g>
</svg>
