<svg xmlns="http://www.w3.org/2000/svg" xmlns:xlink="http://www.w3.org/1999/xlink" width="25" height="200"><defs><path id="fb" fill="#444" d="M13.8 20h-3.3c-.1 0-.2 0-.2-.2v-7.3H8.7V10h1.5l.1-.1v-2c0-.5.1-.9.3-1.3.3-.6.8-1 1.4-1.2.6-.3 1.1-.3 1.7-.3h2.6l.1.1v2.6h-1.8c-.3 0-.6.1-.7.4l-.1.3V10c0 .1 0 .2.2.2h2.4l-.3 2.5h-2.3V20z"/><g id="с_fb"><path fill="#3b5998" d="M0 0h25v25H0z"/><path fill="#fff" d="M13.8 20h-3.3c-.1 0-.2 0-.2-.2v-7.3H8.7V10h1.5l.1-.1v-2c0-.5.1-.9.3-1.3.3-.6.8-1 1.4-1.2.6-.3 1.1-.3 1.7-.3h2.6l.1.1v2.6h-1.8c-.3 0-.6.1-.7.4l-.1.3V10c0 .1 0 .2.2.2h2.4l-.3 2.5h-2.3V20z"/></g><g id="i"><style>.st0{fill:#444}</style><path d="M20 12.5v3.2a4 4 0 0 1-2.6 3.9 4 4 0 0 1-1.9.4H9.4c-1.5 0-2.8-.7-3.7-1.9-.5-.7-.7-1.4-.7-2.2V9.4c0-1.8.9-3 2.4-3.8.7-.4 1.4-.6 2.1-.6h5.9c1.5 0 2.8.6 3.8 1.8.5.7.8 1.6.8 2.4v3.3zm-13.9 0v3.3c0 .5.1 1 .4 1.4a3.6 3.6 0 0 0 3 1.7h6.1c.5 0 1-.1 1.4-.3 1.2-.6 1.9-1.5 1.9-2.9V9.3c0-.6-.2-1.2-.5-1.7a3.5 3.5 0 0 0-2.8-1.4H9.5l-1.3.2a3.2 3.2 0 0 0-2.1 3v3.1z" class="st0"/><path d="M12.5 15.6c-2 0-3.5-1.6-3.5-3.5s1.6-3.5 3.5-3.5 3.5 1.6 3.5 3.5-1.6 3.5-3.5 3.5zm0-1.1c1.3 0 2.4-1.1 2.4-2.4 0-1.3-1.1-2.4-2.4-2.4s-2.4 1.1-2.4 2.4c0 1.4 1.1 2.4 2.4 2.4zm3.9-6.8c.4 0 .7.3.7.8 0 .4-.3.8-.7.8-.4 0-.7-.3-.7-.8s.3-.8.7-.8z" class="st0"/></g><g id="c_i"><style>.st1{fill:#fcfcfc}</style><path fill="#8a3ab9" d="M0 0h25v25H0z"/><path d="M20 12.5v3.2a4 4 0 0 1-2.6 3.9 4 4 0 0 1-1.9.4H9.4c-1.5 0-2.8-.7-3.7-1.9-.5-.7-.7-1.5-.7-2.3V9.3c0-1.8.9-3 2.4-3.8.7-.3 1.4-.5 2.1-.5h5.9c1.5 0 2.8.6 3.8 1.8.5.7.8 1.5.8 2.4v3.3zm-13.9 0v3.3c0 .5.1 1 .4 1.4a3.6 3.6 0 0 0 3 1.7h6.1c.5 0 1-.1 1.4-.3 1.2-.6 1.9-1.5 1.9-2.9V9.3c0-.6-.2-1.2-.5-1.7a3.5 3.5 0 0 0-2.8-1.4H9.5a2 2 0 0 0-1.3.2 3.2 3.2 0 0 0-2.1 3v3.1z" class="st1"/><path d="M12.5 15.7c-2 0-3.5-1.6-3.5-3.5s1.6-3.5 3.5-3.5 3.5 1.6 3.5 3.5-1.5 3.5-3.5 3.5zm0-1.1c1.3 0 2.4-1.1 2.4-2.4 0-1.3-1.1-2.4-2.4-2.4a2.4 2.4 0 0 0-2.4 2.4c0 1.3 1.1 2.4 2.4 2.4zm3.9-6.9c.4 0 .7.3.7.8 0 .4-.3.8-.7.8-.4 0-.7-.3-.7-.8s.3-.8.7-.8z" class="st1"/></g><path id="p" fill="#444" d="M12.5 5A7.6 7.6 0 0 0 5 12.5c0 4.1 3.4 7.5 7.5 7.5s7.5-3.4 7.5-7.5S16.6 5 12.5 5zm3.6 6.6a4 4 0 0 1-1.6 2.7c-.7.4-1.5.4-1.9.1l-.7-.4-.4 1.6c-.2.6-.6 1.2-1 1.5a6 6 0 0 1 .3-3.1l.5-1.8s-.4-.8 0-1.7c.4-.9 1.2-.7 1.3-.5.1.1.4.2.2 1.1s-.6 1.8-.3 2.2c.2.3 1.2.5 1.7-.3s.6-1.1.7-2.3c0 0 0-1.9-1.7-2a3 3 0 0 0-2.5.9c-.5.5-.8 1.7-.4 2.4.2.3.2.5.2.7l-.2.4S9 13 8.9 11.5a3 3 0 0 1 1.3-2.8c.6-.5 1.7-1.1 3.8-.7 1.4.4 2.3 1.6 2.1 3.6z"/><g id="c_p"><path fill="#c8232c" d="M0 0h25v25H0z"/><path fill="#fff" d="M12.5 5A7.6 7.6 0 0 0 5 12.5c0 4.1 3.4 7.5 7.5 7.5s7.5-3.4 7.5-7.5S16.6 5 12.5 5zm3.6 6.6a4 4 0 0 1-1.6 2.7c-.7.4-1.5.4-1.9.1l-.7-.4-.4 1.6c-.2.6-.6 1.2-1 1.5a6 6 0 0 1 .3-3.1l.5-1.8s-.4-.8 0-1.7c.4-.9 1.2-.7 1.3-.5.1.1.4.2.2 1.1s-.6 1.8-.3 2.2c.2.3 1.2.5 1.7-.3s.6-1.1.7-2.3c0 0 0-1.9-1.7-2a3 3 0 0 0-2.5.9c-.5.5-.8 1.7-.4 2.4.2.3.2.5.2.7l-.2.4S9 13 8.9 11.5a3 3 0 0 1 1.3-2.8c.6-.5 1.7-1.1 3.8-.7 1.4.4 2.3 1.6 2.1 3.6z"/></g><path id="a" fill="#444" d="M7.7 10.1l-.7.4c0-.3.1-.6.3-.8.1-.3.5-.4.7-.4 0 .3-.1.5-.3.8zm.3.5l-1 .2-.8-.2c-.4 0-.8.2-1 .6-.4.8-.1 1.9.3 2.5.2.3.5.7.8.7l.8-.2.8.2c.3 0 .6-.3.8-.6l.3-.9s-.7-.3-.7-1c0-.6.5-.9.5-1-.2-.3-.6-.3-.8-.3zm2.4-1v4.6h.7v-1.6h1c.9 0 1.5-.6 1.5-1.5s-.6-1.5-1.5-1.5h-1.7zm.7.6h.8c.6 0 1 .3 1 .9 0 .6-.4.9-1 .9h-.8v-1.8zm3.8 4.1c.4 0 .9-.2 1-.6v.6h.7v-2.4c0-.7-.5-1.1-1.3-1.1s-1.3.4-1.3 1h.6c.1-.3.3-.5.7-.5s.7.2.7.6v.3l-1 .1c-.8.1-1.3.4-1.3 1s.5 1 1.2 1zm.2-.5c-.4 0-.6-.2-.6-.5s.2-.5.7-.5h.8v.3c-.1.3-.5.7-.9.7zm2.4 1.8c.7 0 1-.3 1.3-1.1L20 11h-.7l-.8 2.7-.9-2.7h-.7l1.2 3.4-.1.2c-.1.3-.3.5-.6.5h-.2v.6l.3-.1z"/><g id="c_a"><path fill="#666" d="M0 0h25v25H0z"/><path fill="#fff" d="M7.7 10.1l-.7.4c0-.3.1-.6.3-.8.1-.3.5-.4.7-.4 0 .3-.1.5-.3.8zm.3.5l-1 .2-.8-.2c-.4 0-.8.2-1 .6-.4.8-.1 1.9.3 2.5.2.3.5.7.8.7l.8-.2.8.2c.3 0 .6-.3.8-.6l.3-.9s-.7-.3-.7-1c0-.6.5-.9.5-1-.2-.3-.6-.3-.8-.3zm2.4-1v4.6h.7v-1.6h1c.9 0 1.5-.6 1.5-1.5s-.6-1.5-1.5-1.5h-1.7zm.7.6h.8c.6 0 1 .3 1 .9 0 .6-.4.9-1 .9h-.8v-1.8zm3.8 4.1c.4 0 .9-.2 1-.6v.6h.7v-2.4c0-.7-.5-1.1-1.3-1.1s-1.3.4-1.3 1h.6c.1-.3.3-.5.7-.5s.7.2.7.6v.3l-1 .1c-.8.1-1.3.4-1.3 1s.5 1 1.2 1zm.2-.5c-.4 0-.6-.2-.6-.5s.2-.5.7-.5h.8v.3c-.1.3-.5.7-.9.7zm2.4 1.8c.7 0 1-.3 1.3-1.1L20 11h-.7l-.8 2.7-.9-2.7h-.7l1.2 3.4-.1.2c-.1.3-.3.5-.6.5h-.2v.6l.3-.1z"/></g></defs><use xlink:href="#fb"/><use y="25" xlink:href="#с_fb"/><use y="50" xlink:href="#i"/><use y="75" xlink:href="#c_i"/><use y="100" xlink:href="#p"/><use y="125" xlink:href="#c_p"/><use y="150" xlink:href="#a"/><use y="175" xlink:href="#c_a"/></svg>