<?xml version="1.0" encoding="utf-8"?>
<!-- Generator: Adobe Illustrator 25.2.0, SVG Export Plug-In . SVG Version: 6.00 Build 0)  -->
<svg version="1.1" id="Layer_1" xmlns="http://www.w3.org/2000/svg" xmlns:xlink="http://www.w3.org/1999/xlink" x="0px" y="0px"
	 viewBox="0 0 25 25" style="enable-background:new 0 0 25 25;" xml:space="preserve">
<style type="text/css">
	.st0{fill:#3B5998;}
	.st1{fill:#FFFFFF;}
</style>
<rect class="st0" width="25" height="25"/>
<g>
	<path class="st1" d="M13.8,20c-0.1,0-0.1,0-0.2,0c-1,0-2,0-3.1,0c-0.1,0-0.2,0-0.2-0.2c0-2.4,0-4.7,0-7.1c0-0.1,0-0.1,0-0.2
		c-0.6,0-1.1,0-1.6,0c0-0.8,0-1.7,0-2.5c0.1,0,0.1,0,0.2,0c0.4,0,0.9,0,1.3,0c0.1,0,0.1,0,0.1-0.1c0-0.7,0-1.3,0-2
		c0-0.5,0.1-0.9,0.3-1.3c0.3-0.6,0.8-1,1.4-1.2c0.6-0.3,1.1-0.3,1.7-0.3c0.9,0,1.7,0,2.6,0c0.1,0,0.1,0,0.1,0.1c0,0.8,0,1.6,0,2.5
		c0,0,0,0,0,0.1c-0.1,0-0.1,0-0.2,0c-0.5,0-1.1,0-1.6,0c-0.3,0-0.6,0.1-0.7,0.4c0,0.1-0.1,0.2-0.1,0.3c0,0.5,0,1,0,1.5
		c0,0.1,0,0.2,0.2,0.2c0.7,0,1.5,0,2.2,0c0.1,0,0.1,0,0.2,0c-0.1,0.9-0.2,1.7-0.3,2.5c-0.8,0-1.5,0-2.3,0
		C13.8,14.9,13.8,17.5,13.8,20z"/>
</g>
</svg>
