<?xml version="1.0" encoding="utf-8"?>
<!-- Generator: Adobe Illustrator 25.2.0, SVG Export Plug-In . SVG Version: 6.00 Build 0)  -->
<svg version="1.1" id="Слой_1" xmlns="http://www.w3.org/2000/svg" xmlns:xlink="http://www.w3.org/1999/xlink" x="0px" y="0px"
	 viewBox="0 0 25 25" style="enable-background:new 0 0 25 25;" xml:space="preserve">
<style type="text/css">
	.st0{fill:#FF7977;}
</style>
<path class="st0" d="M20.3,13.2c0-0.5-0.1-1-0.3-1.4c-0.1-0.3-0.3-0.7-0.4-1c-1.2-2.7-2.5-5.3-3.9-8c-0.2-0.4-0.4-0.7-0.6-1.1
	c-0.2-0.4-0.4-0.7-0.7-1C13.9,0.3,13.3,0,12.7,0h-0.3c-0.7,0-1.3,0.3-1.8,0.8C10.3,1.1,10,1.4,9.8,1.7C9.6,2.1,9.5,2.4,9.3,2.8
	C8.4,4.6,7.5,6.3,6.6,8.1c-0.5,1.1-1,2.1-1.5,3.2c-0.2,0.4-0.4,0.9-0.5,1.4c-0.1,0.8,0.1,1.7,0.5,2.4c0.4,0.6,1,1.1,1.6,1.4
	c0.5,0.2,1.1,0.3,1.7,0.3c0.8,0,1.5-0.3,2.1-0.7c0.7-0.4,1.3-1,1.9-1.6c0.5,0.6,1.1,1.1,1.8,1.5c0.6,0.4,1.4,0.7,2.1,0.8
	c0.8,0.1,1.7-0.1,2.4-0.6c0.6-0.4,1.1-1,1.4-1.7C20.3,14.2,20.3,13.7,20.3,13.2L20.3,13.2z M12.5,12.9c-0.2-0.2-0.4-0.5-0.6-0.8
	c-0.3-0.5-0.6-0.9-0.8-1.4c-0.2-0.4-0.3-0.8-0.4-1.3c0-0.4,0-0.7,0.1-1.1c0.1-0.3,0.3-0.6,0.6-0.8c0.7-0.4,1.7-0.4,2.3,0.1
	C14,8,14.2,8.4,14.3,8.8c0.1,0.5-0.1,1.1-0.2,1.6C13.7,11.3,13.1,12.1,12.5,12.9L12.5,12.9z M19.2,14.1c-0.2,0.6-0.6,1.2-1.2,1.5
	c-0.5,0.3-1.1,0.4-1.7,0.3c-0.7-0.1-1.4-0.5-2-1c-0.4-0.3-0.8-0.7-1.2-1.1c0.6-0.7,1.1-1.5,1.5-2.3c0.4-0.7,0.6-1.5,0.7-2.3
	c0-0.5-0.1-1-0.3-1.5c-0.3-0.6-0.9-1.1-1.5-1.3c-0.6-0.2-1.3-0.2-1.9-0.1c-0.6,0.2-1.1,0.5-1.5,1C9.8,7.7,9.7,8.2,9.6,8.8
	C9.6,9.5,9.7,10.3,10,11c0.4,1,1.1,1.9,1.7,2.8c-0.3,0.4-0.6,0.7-1,1c-0.6,0.5-1.2,0.9-1.9,1c-0.6,0.1-1.2,0.1-1.8-0.2
	C6.4,15.3,6,14.7,5.8,14c-0.1-0.5-0.1-1,0.1-1.5c0.1-0.4,0.3-0.8,0.5-1.2C7.6,8.6,8.8,6,10.2,3.4c0.2-0.4,0.4-0.8,0.6-1.2
	c0.2-0.3,0.4-0.6,0.7-0.8c0.3-0.2,0.7-0.4,1.1-0.4c0.4,0,0.8,0.1,1.1,0.4c0.3,0.3,0.5,0.6,0.7,0.9c0.4,0.8,0.8,1.6,1.2,2.3
	c1.1,2.2,2.2,4.5,3.3,6.8c0.2,0.4,0.3,0.7,0.4,1.1C19.3,13.1,19.3,13.6,19.2,14.1L19.2,14.1z M6.6,19c0.3-0.1,0.7,0.1,0.8,0.5
	c0.1,0.3-0.1,0.7-0.5,0.8c-0.3,0.1-0.7-0.1-0.9-0.4c-0.1-0.3,0-0.6,0.3-0.8C6.4,19,6.5,19,6.6,19z M8.9,21.2
	c0.2-0.2,0.5-0.4,0.8-0.4c0.2,0,0.4,0,0.6,0c0,0.3,0,0.6,0,0.9c-0.3-0.1-0.6-0.1-0.9,0c-0.2,0.1-0.3,0.2-0.4,0.3c0,0,0,0.1,0,0.1
	c0,0.9,0,1.8,0,2.6c0,0,0,0.1,0,0.1c-0.3,0-0.7,0-1,0c0-1.3,0-2.7,0-4c0.3,0,0.6,0,0.9,0c0.1,0,0.1,0,0.2,0.1
	C8.9,21,8.9,21.1,8.9,21.2L8.9,21.2z M16.2,21.2c0.3-0.3,0.7-0.4,1.1-0.4c0.4,0,0.8,0.1,1.1,0.4c0.2,0.2,0.4,0.4,0.4,0.6
	c0.1,0.3,0.1,0.6,0.1,1c0,0.7,0,1.4,0,2.1c-0.3,0-0.7,0-1,0c0-0.7,0-1.4,0-2.1c0-0.3,0-0.5-0.1-0.8c-0.1-0.2-0.3-0.3-0.5-0.3
	c-0.4-0.1-0.7,0.1-1,0.3c0,0,0,0.1,0,0.1c0,0.1,0,0.2,0,0.3c0,0.1,0,0.3,0,0.4c0,0.3,0,0.6,0,0.8c0,0.4,0,0.7,0,1.1
	c-0.3,0-0.7,0-1,0c0-1.3,0-2.7,0-4c0.3,0,0.5,0,0.8,0c0.1,0,0.1,0,0.2,0.1C16.2,21.1,16.2,21.1,16.2,21.2L16.2,21.2z M6.2,24.9
	c0-1.3,0-2.7,0-4c0.3,0,0.7,0,1,0c0,1.3,0,2.7,0,4C6.9,24.9,6.5,24.9,6.2,24.9z M5.6,20.9c-0.3,0-0.5,0-0.8,0c-0.1,0-0.2,0-0.2,0.1
	c0,0.1,0,0.2,0,0.2C4.3,21,4,20.8,3.7,20.8c-0.5,0-1,0.1-1.4,0.4c-0.3,0.2-0.6,0.6-0.7,1c-0.1,0.2-0.1,0.4-0.1,0.6V23
	c0,0.6,0.3,1.1,0.7,1.5C2.5,24.8,3,25,3.4,25h0.2c0.3,0,0.7-0.2,0.9-0.4c0,0.1,0,0.2,0,0.2c0,0.1,0.1,0.1,0.2,0.1c0.3,0,0.6,0,0.8,0
	C5.6,23.6,5.6,22.2,5.6,20.9L5.6,20.9z M4.5,23.6C4.3,23.9,4,24,3.7,24c-0.3,0-0.7-0.1-0.9-0.4c-0.2-0.3-0.3-0.6-0.2-1
	c0-0.3,0.2-0.5,0.4-0.7c0.2-0.2,0.4-0.2,0.7-0.3c0.4,0,0.8,0.1,1,0.4c0,0.4,0,0.9,0,1.3C4.6,23.5,4.6,23.6,4.5,23.6L4.5,23.6z
	 M14.6,22c-0.2-0.4-0.4-0.7-0.8-0.9c-0.4-0.2-0.8-0.3-1.2-0.3c-0.3,0-0.7,0.2-0.9,0.4c0-0.8,0-1.5,0-2.2c-0.3,0-0.7,0-1,0
	c0,2,0,4,0,5.9c0.3,0,0.6,0,0.9,0c0.1,0,0.1,0,0.2-0.1c0-0.1,0-0.1,0-0.2c0.2,0.3,0.6,0.4,0.9,0.4h0.2c0.6,0,1.1-0.3,1.5-0.7
	C14.8,23.6,14.9,22.8,14.6,22L14.6,22z M13.4,23.7c-0.2,0.2-0.5,0.3-0.9,0.3c-0.3,0-0.6-0.1-0.9-0.4c0,0,0-0.1,0-0.1
	c0-0.5,0-0.9,0-1.4c0.2-0.3,0.5-0.4,0.8-0.4c0.3,0,0.7,0.1,0.9,0.3c0.2,0.2,0.3,0.5,0.3,0.8C13.8,23.2,13.7,23.5,13.4,23.7z
	 M23.1,21.5c-0.4-0.6-1.2-0.8-1.9-0.7c-0.3,0-0.6,0.2-0.8,0.4c0-0.7,0-1.5,0-2.2c-0.3,0-0.7,0-1,0c0,2,0,4,0,5.9c0.3,0,0.5,0,0.8,0
	c0.1,0,0.2,0,0.2-0.1c0-0.1,0-0.2,0-0.2c0.2,0.3,0.6,0.4,0.9,0.4h0.2c0.6,0,1.1-0.3,1.5-0.7c0.3-0.4,0.4-0.8,0.5-1.3v-0.3
	C23.5,22.3,23.4,21.9,23.1,21.5L23.1,21.5z M22.3,23.6C22,24,21.5,24.1,21.1,24c-0.3-0.1-0.5-0.2-0.7-0.4c0-0.2,0-0.3,0-0.5
	c0-0.3,0-0.6,0-0.9c0.2-0.2,0.4-0.4,0.7-0.4c0.5-0.1,1,0.1,1.3,0.5C22.6,22.7,22.6,23.2,22.3,23.6L22.3,23.6z"/>
</svg>
