<?xml version="1.0" encoding="utf-8"?>
<!-- Generator: Adobe Illustrator 25.2.0, SVG Export Plug-In . SVG Version: 6.00 Build 0)  -->
<svg version="1.1" id="Слой_1" xmlns="http://www.w3.org/2000/svg" xmlns:xlink="http://www.w3.org/1999/xlink" x="0px" y="0px"
	 viewBox="0 0 25 25" style="enable-background:new 0 0 25 25;" xml:space="preserve">
<style type="text/css">
	.st0{fill:#FFFFFF;}
	.st1{fill:#484848;}
	.st2{fill:#FFB400;}
	.st3{fill:#FF5A5F;}
</style>
<g>
	<path class="st0" d="M20,10.5c0,0.6-0.4,1.3-1,1.7l-5.3,4.2c1.8,0.5,3.2,2.2,3.2,4.2c0,2.4-2,4.4-4.4,4.4s-4.4-2-4.4-4.4
		c0-2,1.3-3.7,3.2-4.2l-5.3-4.2C5.3,11.6,5,11.1,5,10.5V1.6C5,0.8,5.8,0,6.6,0h11.8C19.2,0,20,0.8,20,1.6c0,0.9,0,2,0,4.3v0.2
		C20,8.7,20,9.7,20,10.5"/>
	<path class="st1" d="M18.5,10.3c0,0.3-0.2,0.7-0.6,1l-4.9,3.9c-0.3,0.3-0.8,0.3-1.1,0l-4.9-3.9c-0.4-0.4-0.6-0.7-0.6-1V2.2
		c0-0.3,0.4-0.7,0.7-0.7h10.6c0.3,0,0.7,0.4,0.7,0.7c0,0.8,0,1.8,0,3.9v0.2C18.5,8.7,18.5,9.6,18.5,10.3 M19.3,6.3V6.1
		c0-2.1,0-3.1,0-3.9c0-0.7-0.8-1.5-1.5-1.5H7.2c-0.7,0-1.5,0.8-1.5,1.5v8.1c0,0.6,0.3,1,0.9,1.6l4.9,3.9c0.6,0.5,1.4,0.5,2,0
		l4.9-3.9c0.5-0.4,0.9-1,0.9-1.6C19.3,9.6,19.3,8.7,19.3,6.3 M12.5,23.5c-1.6,0-2.9-1.3-2.9-2.9s1.3-2.9,2.9-2.9s2.9,1.3,2.9,2.9
		S14.1,23.5,12.5,23.5 M12.5,16.9c-2,0-3.7,1.6-3.7,3.7s1.6,3.7,3.7,3.7s3.7-1.6,3.7-3.7S14.5,16.9,12.5,16.9"/>
	<path class="st2" d="M7.2,10.5l10.5-8.3v8.3l-5.3,4.2L7.2,10.5z M14.6,21.4c-0.3,0.9-1.2,1.5-2.1,1.5c-1.3,0-2.3-1-2.3-2.3
		c0-0.8,0.4-1.5,1-1.9L14.6,21.4z"/>
	<path class="st3" d="M12.5,14.7l-5.3-4.2V2.2l10.6,8.3L12.5,14.7z"/>
</g>
</svg>
