<?xml version="1.0" encoding="utf-8"?>
<!-- Generator: Adobe Illustrator 25.2.0, SVG Export Plug-In . SVG Version: 6.00 Build 0)  -->
<svg version="1.1"
	 id="svg1936" xmlns:cc="http://creativecommons.org/ns#" xmlns:dc="http://purl.org/dc/elements/1.1/" xmlns:inkscape="http://www.inkscape.org/namespaces/inkscape" xmlns:rdf="http://www.w3.org/1999/02/22-rdf-syntax-ns#" xmlns:sodipodi="http://sodipodi.sourceforge.net/DTD/sodipodi-0.dtd" xmlns:svg="http://www.w3.org/2000/svg"
	 xmlns="http://www.w3.org/2000/svg" xmlns:xlink="http://www.w3.org/1999/xlink" x="0px" y="0px" viewBox="0 0 25 25"
	 style="enable-background:new 0 0 25 25;" xml:space="preserve">
<style type="text/css">
	.st0{fill-rule:evenodd;clip-rule:evenodd;fill:#FF9900;}
	.st1{fill-rule:evenodd;clip-rule:evenodd;}
</style>
<g>
	
		<sodipodi:namedview  bordercolor="#666666" borderopacity="1" gridtolerance="10" guidetolerance="10" id="namedview19" inkscape:current-layer="svg1936" inkscape:cx="426.12453" inkscape:cy="94.816171" inkscape:pageopacity="0" inkscape:pageshadow="2" inkscape:window-height="705" inkscape:window-maximized="1" inkscape:window-width="1366" inkscape:window-x="-8" inkscape:window-y="-8" inkscape:zoom="0.72245926" objecttolerance="10" pagecolor="#ffffff" showgrid="false">
		</sodipodi:namedview>
	<path id="path8" inkscape:connector-curvature="0" class="st0" d="M15.5,14.6c-1.5,1.1-3.6,1.6-5.4,1.6c-2.5,0-4.8-0.9-6.6-2.5
		c-0.1-0.1,0-0.3,0.1-0.2c1.9,1.1,4.2,1.7,6.6,1.7c1.6,0,3.4-0.3,5-1C15.5,14.2,15.8,14.4,15.5,14.6"/>
	<path id="path10" inkscape:connector-curvature="0" class="st0" d="M16.1,13.9c-0.2-0.2-1.2-0.1-1.7-0.1c-0.1,0-0.2-0.1,0-0.2
		c0.8-0.6,2.2-0.4,2.4-0.2c0.2,0.2,0,1.6-0.8,2.2c-0.1,0.1-0.2,0-0.2-0.1C15.9,15.1,16.3,14.2,16.1,13.9"/>
	<path id="path12" inkscape:connector-curvature="0" class="st1" d="M14.5,9.5V9c0-0.1,0.1-0.1,0.1-0.1h2.5c0.1,0,0.1,0.1,0.1,0.1
		v0.5c0,0.1-0.1,0.2-0.2,0.4l-1.3,1.9c0.5,0,1,0.1,1.5,0.3c0.1,0.1,0.1,0.1,0.1,0.2v0.6c0,0.1-0.1,0.2-0.2,0.1
		c-0.8-0.4-1.8-0.5-2.7,0c-0.1,0-0.2,0-0.2-0.1v-0.6c0-0.1,0-0.3,0.1-0.4l1.5-2.2h-1.3C14.5,9.7,14.5,9.6,14.5,9.5"/>
	<path id="path14" inkscape:connector-curvature="0" class="st1" d="M5.2,13.1H4.4c-0.1,0-0.1-0.1-0.1-0.1V9c0-0.1,0.1-0.1,0.1-0.1
		h0.7c0.1,0,0.1,0.1,0.1,0.1v0.5h0c0.2-0.5,0.5-0.7,1-0.7c0.5,0,0.8,0.2,1,0.7C7.5,9,7.9,8.8,8.4,8.8c0.3,0,0.7,0.1,0.9,0.4
		c0.2,0.3,0.2,0.8,0.2,1.2l0,2.5c0,0.1-0.1,0.1-0.1,0.1H8.5c-0.1,0-0.1-0.1-0.1-0.1v-2.1c0-0.2,0-0.6,0-0.7C8.3,9.8,8.2,9.7,7.9,9.7
		c-0.2,0-0.4,0.1-0.5,0.3s-0.1,0.5-0.1,0.8v2.1c0,0.1-0.1,0.1-0.1,0.1H6.5c-0.1,0-0.1-0.1-0.1-0.1l0-2.1c0-0.4,0.1-1.1-0.5-1.1
		c-0.6,0-0.5,0.6-0.5,1.1v2.1C5.3,13,5.3,13.1,5.2,13.1"/>
	<path id="path16" inkscape:connector-curvature="0" class="st1" d="M19.5,8.8c1.1,0,1.8,1,1.8,2.2c0,1.2-0.7,2.2-1.8,2.2
		c-1.1,0-1.7-1-1.7-2.2C17.7,9.7,18.4,8.8,19.5,8.8 M19.5,9.6c-0.6,0-0.6,0.8-0.6,1.3c0,0.5,0,1.5,0.6,1.5c0.6,0,0.6-0.8,0.6-1.3
		c0-0.3,0-0.7-0.1-1.1C19.9,9.7,19.7,9.6,19.5,9.6"/>
	<path id="path18" inkscape:connector-curvature="0" class="st1" d="M22.7,13.1H22c-0.1,0-0.1-0.1-0.1-0.1l0-4
		c0-0.1,0.1-0.1,0.1-0.1h0.7c0.1,0,0.1,0,0.1,0.1v0.6h0c0.2-0.5,0.5-0.8,1.1-0.8c0.3,0,0.7,0.1,0.9,0.5C25,9.5,25,10.1,25,10.5V13
		c0,0.1-0.1,0.1-0.1,0.1h-0.8c-0.1,0-0.1-0.1-0.1-0.1v-2.2c0-0.4,0.1-1.1-0.5-1.1c-0.2,0-0.4,0.1-0.4,0.3c-0.1,0.2-0.1,0.5-0.1,0.8
		v2.1C22.9,13,22.8,13.1,22.7,13.1"/>
	<path id="path28" inkscape:connector-curvature="0" class="st1" d="M12.4,11.2c0,0.3,0,0.6-0.1,0.8c-0.1,0.2-0.3,0.4-0.5,0.4
		c-0.3,0-0.5-0.2-0.5-0.6c0-0.7,0.6-0.8,1.2-0.8L12.4,11.2 M13.2,13.1c-0.1,0-0.1,0-0.2,0c-0.3-0.2-0.3-0.3-0.4-0.5
		c-0.4,0.4-0.7,0.6-1.3,0.6c-0.7,0-1.2-0.4-1.2-1.2c0-0.6,0.3-1.1,0.8-1.3c0.4-0.2,1-0.2,1.5-0.3v-0.1c0-0.2,0-0.4-0.1-0.6
		c-0.1-0.1-0.3-0.2-0.4-0.2c-0.3,0-0.6,0.2-0.6,0.5c0,0.1-0.1,0.1-0.1,0.1l-0.7-0.1c-0.1,0-0.1-0.1-0.1-0.2c0.2-0.9,1-1.2,1.7-1.2
		c0.4,0,0.9,0.1,1.2,0.4c0.4,0.4,0.3,0.8,0.3,1.3v1.2c0,0.4,0.2,0.5,0.3,0.7c0,0.1,0.1,0.2,0,0.2C13.6,12.7,13.4,12.9,13.2,13.1
		L13.2,13.1"/>
	<path id="path30" inkscape:connector-curvature="0" class="st1" d="M2.3,11.2c0,0.3,0,0.6-0.1,0.8c-0.1,0.2-0.3,0.4-0.5,0.4
		c-0.3,0-0.5-0.2-0.5-0.6c0-0.7,0.6-0.8,1.2-0.8V11.2 M3.1,13.1c-0.1,0-0.1,0-0.2,0c-0.3-0.2-0.3-0.3-0.4-0.5
		C2,13,1.7,13.1,1.2,13.1c-0.7,0-1.2-0.4-1.2-1.2c0-0.6,0.3-1.1,0.8-1.3c0.4-0.2,1-0.2,1.5-0.3v-0.1c0-0.2,0-0.4-0.1-0.6
		C2.1,9.6,1.9,9.5,1.8,9.5c-0.3,0-0.6,0.2-0.6,0.5c0,0.1-0.1,0.1-0.1,0.1l-0.8-0.1C0.2,10,0.1,10,0.1,9.9c0.2-0.9,1-1.2,1.7-1.2
		c0.4,0,0.9,0.1,1.2,0.4c0.4,0.4,0.3,0.8,0.3,1.3v1.2c0,0.4,0.2,0.5,0.3,0.7c0.1,0.1,0.1,0.2,0,0.2C3.5,12.7,3.2,12.9,3.1,13.1
		L3.1,13.1"/>
</g>
</svg>
