<?xml version="1.0" encoding="utf-8"?>
<!-- Generator: Adobe Illustrator 25.2.0, SVG Export Plug-In . SVG Version: 6.00 Build 0)  -->
<svg version="1.1" id="Слой_1" xmlns="http://www.w3.org/2000/svg" xmlns:xlink="http://www.w3.org/1999/xlink" x="0px" y="0px"
	 viewBox="0 0 25 25" style="enable-background:new 0 0 25 25;" xml:space="preserve">
<style type="text/css">
	.st0{fill:#F7B916;}
	.st1{fill:#1F3562;}
	.st2{fill:#1F3561;}
</style>
<g>
	<path class="st0" d="M3.7,14.1l1.9-3.2c0-0.1-0.1-0.2-0.1-0.3L2.1,9.3l-2.1,3c0,0,0,0.1,0,0.1L3.7,14.1z"/>
	<g>
		<path class="st1" d="M11.8,14.5H11c0,0,0,0,0,0l-0.7-0.8l-0.7,0.8c0,0,0,0,0,0H9.1c0,0,0,0,0,0c0,0,0,0,0,0l1-1.2l-1-1.2
			c0,0,0,0,0,0c0,0,0,0,0,0h0.8c0,0,0,0,0,0l0.6,0.7l0.6-0.7c0,0,0,0,0,0h0.6c0,0,0,0,0,0c0,0,0,0,0,0l-0.9,1.1L11.8,14.5
			C11.8,14.5,11.8,14.5,11.8,14.5C11.8,14.5,11.8,14.5,11.8,14.5"/>
		<path class="st1" d="M16,12.5c-0.3,0-0.6,0.2-0.6,0.6h1.2v0C16.5,12.7,16.2,12.5,16,12.5C16,12.5,16,12.5,16,12.5 M17.1,13.4
			C17.1,13.4,17.1,13.4,17.1,13.4l-1.8,0c0,0.4,0.3,0.6,0.7,0.6c0.3,0,0.5-0.1,0.9-0.3c0,0,0,0,0,0c0,0,0,0,0,0v0.5c0,0,0,0,0,0
			c-0.4,0.2-0.7,0.3-1,0.3c-0.8,0-1.3-0.5-1.3-1.3c0-0.8,0.5-1.3,1.3-1.3c0.7,0,1.1,0.5,1.1,1.1C17.1,13.2,17.1,13.4,17.1,13.4"/>
		<path class="st1" d="M20.6,11.6c-0.2,0-0.4-0.2-0.4-0.4c0-0.2,0.2-0.4,0.4-0.4c0.2,0,0.4,0.2,0.4,0.4C21,11.4,20.8,11.6,20.6,11.6
			 M20.3,14.5C20.3,14.5,20.3,14.5,20.3,14.5C20.3,14.5,20.3,14.5,20.3,14.5l0-2.4c0,0,0,0,0,0h0.6c0,0,0,0,0,0v2.4c0,0,0,0,0,0
			c0,0,0,0,0,0H20.3z"/>
		<path class="st1" d="M13,14.1c-0.1,0-0.2,0-0.4-0.1v-1.5c0.1,0,0.3-0.1,0.4-0.1c0.4,0,0.7,0.3,0.7,0.8
			C13.8,13.8,13.5,14.1,13,14.1 M13.1,12c-0.2,0-0.4,0-0.5,0.1H12c0,0,0,0,0,0V16c0.2,0,0.5-0.1,0.6-0.3v-1.2c0.1,0,0.3,0,0.4,0
			c0.9,0,1.4-0.5,1.4-1.3C14.4,12.5,13.9,12,13.1,12"/>
		<path class="st1" d="M19.2,13.9c-0.2,0.1-0.3,0.1-0.5,0.2c-0.4,0-0.6-0.3-0.6-0.7c0-0.5,0.3-0.9,0.8-0.9c0.1,0,0.3,0,0.4,0.1
			L19.2,13.9z M19.2,10.8V12C19,12,18.8,12,18.6,12c-0.7,0-1.3,0.5-1.3,1.3c0,0,0,0,0,0.1c0,0.7,0.5,1.3,1.2,1.3
			c0.3,0,0.5-0.1,0.7-0.2v0.2c0.2,0,0.4-0.1,0.6-0.2v-3.8C19.6,10.6,19.3,10.7,19.2,10.8"/>
		<path class="st1" d="M23.1,13.9c-0.1,0.1-0.3,0.2-0.5,0.2c-0.4,0-0.7-0.3-0.7-0.7c0-0.5,0.3-0.9,0.7-0.9c0.2,0,0.3,0.1,0.4,0.1
			L23.1,13.9z M23.8,12C23.8,12,23.8,12,23.8,12l-0.5,0c0,0,0,0,0,0c0,0,0,0,0,0v0.1h0C23,12,22.8,12,22.6,12
			c-0.7,0-1.3,0.6-1.3,1.3s0.5,1.3,1.2,1.3c0.2,0,0.5,0,0.7-0.3v0.3c0.2,0,0.4-0.1,0.6-0.2L23.8,12z"/>
		<path class="st1" d="M7.4,13.9h1.6c0,0.2-0.1,0.4-0.2,0.6H7.1c-0.2,0-0.4-0.2-0.4-0.4c0,0,0,0,0,0V11c0,0,0,0,0,0
			c0-0.2,0.2-0.4,0.4-0.4h0h1.8c0,0.2-0.1,0.4-0.2,0.6H7.4v0.9h1.3c0,0,0,0,0,0v0.6c0,0,0,0,0,0H7.4L7.4,13.9z"/>
		<path class="st1" d="M11.8,14.5H11c0,0,0,0,0,0l-0.7-0.8l-0.7,0.8c0,0,0,0,0,0H9.1c0,0,0,0,0,0c0,0,0,0,0,0l1-1.2l-1-1.2
			c0,0,0,0,0,0c0,0,0,0,0,0h0.8c0,0,0,0,0,0l0.6,0.7l0.6-0.7c0,0,0,0,0,0h0.6c0,0,0,0,0,0c0,0,0,0,0,0l-0.9,1.1L11.8,14.5
			C11.8,14.5,11.8,14.5,11.8,14.5C11.8,14.5,11.8,14.5,11.8,14.5"/>
		<path class="st1" d="M16,12.5c-0.3,0-0.6,0.2-0.6,0.6h1.2v0C16.5,12.7,16.2,12.5,16,12.5C16,12.5,16,12.5,16,12.5 M17.1,13.4
			C17.1,13.4,17.1,13.4,17.1,13.4l-1.8,0c0,0.4,0.3,0.6,0.7,0.6c0.3,0,0.5-0.1,0.9-0.3c0,0,0,0,0,0v0.5c0,0,0,0,0,0
			c-0.4,0.2-0.7,0.3-1,0.3c-0.8,0-1.3-0.5-1.3-1.3S15.2,12,16,12c0.7,0,1.1,0.5,1.1,1.1C17.1,13.2,17.1,13.4,17.1,13.4"/>
		<path class="st1" d="M20.6,11.6c-0.2,0-0.4-0.2-0.4-0.4c0-0.2,0.2-0.4,0.4-0.4c0.2,0,0.4,0.2,0.4,0.4c0,0,0,0,0,0
			C21,11.4,20.8,11.6,20.6,11.6 M20.3,14.5C20.3,14.5,20.3,14.5,20.3,14.5C20.3,14.5,20.3,14.5,20.3,14.5l0-2.4c0,0,0,0,0,0h0.6
			c0,0,0,0,0,0v2.4c0,0,0,0,0,0c0,0,0,0,0,0H20.3z"/>
		<path class="st1" d="M13,14.1c-0.1,0-0.2,0-0.4-0.1v-1.5c0.1,0,0.3-0.1,0.4-0.1c0.4,0,0.7,0.3,0.7,0.8
			C13.8,13.8,13.5,14.1,13,14.1 M13.1,12c-0.2,0-0.4,0-0.5,0.1H12c0,0,0,0,0,0c0,0,0,0,0,0V16c0.2,0,0.5-0.1,0.6-0.3v-1.2
			c0.1,0,0.3,0,0.4,0c0.9,0,1.4-0.5,1.4-1.3C14.4,12.5,13.9,12,13.1,12"/>
		<path class="st1" d="M19.2,13.9c-0.2,0.1-0.3,0.1-0.5,0.2c-0.4,0-0.6-0.3-0.6-0.7c0-0.5,0.3-0.9,0.8-0.9c0.1,0,0.3,0,0.4,0.1
			L19.2,13.9z M19.2,10.8V12C19,12,18.8,12,18.6,12c-0.7,0-1.3,0.5-1.3,1.3c0,0,0,0,0,0.1c0,0.7,0.5,1.3,1.2,1.3
			c0.3,0,0.5-0.1,0.7-0.2v0.2c0.2,0,0.4-0.1,0.6-0.2v-3.8C19.6,10.6,19.3,10.7,19.2,10.8"/>
		<path class="st1" d="M23.1,13.9c-0.1,0.1-0.3,0.2-0.5,0.2c-0.4,0-0.7-0.3-0.7-0.7c0-0.5,0.3-0.9,0.7-0.9c0.2,0,0.3,0.1,0.4,0.1
			L23.1,13.9z M23.8,12C23.8,12,23.8,12,23.8,12l-0.5,0c0,0,0,0,0,0c0,0,0,0,0,0v0.1h0C23,12,22.8,12,22.6,12
			c-0.7,0-1.3,0.6-1.3,1.3c0,0.8,0.5,1.3,1.2,1.3c0.2,0,0.5,0,0.7-0.3v0.3c0.2,0,0.4-0.1,0.6-0.2L23.8,12z"/>
		<path class="st1" d="M7.4,13.9h1.6c0,0.2-0.1,0.4-0.2,0.6H7.1c-0.2,0-0.4-0.2-0.4-0.4c0,0,0,0,0,0V11c0,0,0,0,0,0
			c0-0.2,0.2-0.4,0.4-0.4h0h1.8c0,0.2-0.1,0.4-0.2,0.6H7.4v0.9h1.3c0,0,0,0,0,0v0.6c0,0,0,0,0,0H7.4L7.4,13.9z"/>
		<path class="st1" d="M24.5,12L24.5,12c0.2,0,0.2,0,0.2-0.1c0-0.1,0-0.1-0.1-0.1h-0.1L24.5,12z M24.5,11.7c0.1,0,0.2,0,0.2,0.1
			c0,0.1,0,0.1-0.1,0.1l0.1,0.2h-0.1L24.5,12h-0.1v0.2h-0.1v-0.5H24.5z M24.3,11.7c-0.1,0.1-0.1,0.2-0.1,0.3c0,0.2,0.2,0.4,0.4,0.4
			c0.1,0,0.2,0,0.3-0.1c0.1-0.1,0.1-0.2,0.1-0.3c0-0.2-0.2-0.4-0.4-0.4c0,0,0,0,0,0C24.4,11.6,24.3,11.6,24.3,11.7 M24.9,11.7
			C25,11.8,25,11.9,25,12c0,0.1,0,0.2-0.1,0.3c-0.1,0.1-0.2,0.1-0.3,0.1c-0.3,0-0.5-0.2-0.5-0.5c0-0.1,0.1-0.2,0.1-0.3
			c0.1-0.1,0.2-0.1,0.3-0.1C24.7,11.5,24.8,11.6,24.9,11.7"/>
	</g>
	<path class="st2" d="M3.3,11.2l-0.1-0.3l-1-1.3l0.2,0L4.1,11l1-0.3c0.1,0,0.2,0,0.3,0c-0.7-1.4-2.4-2-3.8-1.4
		c-1.2,0.5-1.8,1.8-1.6,3l2.4-0.8L3.3,11.2z"/>
	<path class="st2" d="M5.5,10.9c-0.1,0.1-0.2,0.1-0.3,0.2l-1,0.3l-0.7,2.1l-0.2,0.1l0.1-1.6l-0.1-0.3l-0.9,0.3l-2.5,0.6
		C0.4,14,1.9,15,3.4,14.7C5,14.3,6,12.8,5.6,11.3C5.6,11.2,5.6,11.1,5.5,10.9"/>
	<path class="st2" d="M5.4,14.5c-0.2,0-0.3-0.1-0.3-0.3S5.2,14,5.3,14c0.2,0,0.3,0.1,0.3,0.3c0,0,0,0,0,0
		C5.6,14.4,5.5,14.5,5.4,14.5C5.4,14.5,5.4,14.5,5.4,14.5 M5.4,13.9c-0.2,0-0.3,0.1-0.3,0.3s0.1,0.3,0.3,0.3c0.2,0,0.3-0.1,0.3-0.3
		c0,0,0,0,0,0C5.7,14.1,5.6,13.9,5.4,13.9C5.4,13.9,5.4,13.9,5.4,13.9"/>
	<path class="st2" d="M5.3,14.2v-0.1h0.1c0,0,0.1,0,0.1,0.1S5.4,14.2,5.3,14.2L5.3,14.2z M5.5,14.2c0-0.1,0-0.1-0.1-0.1H5.2v0.4h0.1
		v-0.2h0.1l0.1,0.2h0.1L5.5,14.2C5.5,14.3,5.5,14.2,5.5,14.2C5.5,14.2,5.5,14.2,5.5,14.2"/>
</g>
</svg>
