<?xml version="1.0" encoding="utf-8"?>
<!-- Generator: Adobe Illustrator 25.2.0, SVG Export Plug-In . SVG Version: 6.00 Build 0)  -->
<svg version="1.1" id="Layer_1" xmlns="http://www.w3.org/2000/svg" xmlns:xlink="http://www.w3.org/1999/xlink" x="0px" y="0px"
	 viewBox="0 0 25 25" style="enable-background:new 0 0 25 25;" xml:space="preserve">
<style type="text/css">
	.st0{fill:#3780FF;}
	.st1{fill:#38B137;}
	.st2{fill:#FA3913;}
	.st3{fill:#FCBD06;}
</style>
<path class="st0" d="M3.1,8.4h0.2c0.8,0,1.5,0.3,2.1,0.9C5.2,9.5,5,9.7,4.8,9.9C4.5,9.6,4.1,9.4,3.7,9.3C3.1,9.2,2.5,9.3,2,9.7
	c-0.5,0.4-0.9,1-1,1.6c-0.1,0.6,0.1,1.3,0.5,1.8c0.4,0.5,1,0.8,1.6,0.8c0.6,0,1.2-0.1,1.6-0.6c0.3-0.3,0.5-0.7,0.5-1.2
	c-0.7,0-1.4,0-2.1,0v-0.9h2.9c0.2,0.9-0.1,2-0.8,2.6c-0.5,0.5-1.1,0.7-1.8,0.8c-0.6,0.1-1.3-0.1-1.9-0.4c-0.7-0.4-1.2-1-1.5-1.7
	c-0.3-0.7-0.3-1.4,0-2.1C0.4,10,0.8,9.4,1.3,9C1.8,8.7,2.4,8.5,3.1,8.4z"/>
<path class="st1" d="M19.9,8.6h0.9v6c-0.3,0-0.6,0-0.9,0C19.9,12.6,19.9,10.6,19.9,8.6z"/>
<path class="st2" d="M8.1,10.7c0.6-0.1,1.2,0,1.6,0.3c0.4,0.3,0.7,0.8,0.8,1.3c0.1,0.6,0,1.2-0.4,1.7c-0.4,0.5-1.1,0.8-1.7,0.8
	c-0.6,0-1.2-0.3-1.5-0.8c-0.4-0.5-0.5-1.3-0.3-1.9C6.8,11.4,7.4,10.8,8.1,10.7 M8.2,11.5c-0.2,0.1-0.4,0.2-0.6,0.4
	c-0.4,0.5-0.4,1.3,0.1,1.7c0.3,0.3,0.6,0.4,1,0.3c0.3-0.1,0.6-0.3,0.8-0.6c0.3-0.5,0.2-1.2-0.2-1.6C9,11.5,8.6,11.4,8.2,11.5z"/>
<path class="st3" d="M12.6,10.7c0.6-0.1,1.3,0.1,1.8,0.5c0.8,0.7,0.9,2,0.2,2.8c-0.4,0.5-1,0.8-1.7,0.8c-0.6,0-1.2-0.3-1.6-0.8
	c-0.4-0.5-0.5-1.3-0.3-1.9C11.3,11.3,11.9,10.8,12.6,10.7 M12.7,11.5c-0.2,0.1-0.4,0.2-0.6,0.4c-0.4,0.5-0.4,1.3,0,1.7
	c0.3,0.3,0.7,0.4,1,0.3c0.3-0.1,0.6-0.3,0.8-0.6c0.3-0.5,0.2-1.2-0.2-1.6C13.4,11.5,13,11.4,12.7,11.5z"/>
<path class="st0" d="M16.3,11c0.5-0.3,1.1-0.4,1.6-0.1c0.2,0.1,0.3,0.2,0.4,0.3c0-0.1,0-0.2,0-0.3c0.3,0,0.6,0,0.8,0v3.7
	c0,0.6-0.1,1.1-0.5,1.6c-0.4,0.4-1.1,0.6-1.7,0.5c-0.7-0.1-1.2-0.6-1.5-1.2c0.3-0.1,0.5-0.2,0.8-0.3c0.1,0.3,0.4,0.6,0.8,0.7
	s0.8,0,1-0.3c0.3-0.3,0.3-0.8,0.2-1.1c-0.2,0.2-0.4,0.4-0.7,0.4c-0.6,0.2-1.2,0-1.7-0.4c-0.5-0.4-0.7-1-0.7-1.6
	C15.4,12,15.8,11.3,16.3,11 M17.2,11.5c-0.3,0-0.5,0.2-0.7,0.4c-0.4,0.5-0.4,1.2,0,1.7c0.2,0.3,0.6,0.4,0.9,0.4
	c0.3,0,0.6-0.2,0.8-0.5c0.3-0.5,0.2-1.2-0.1-1.6C17.9,11.6,17.6,11.4,17.2,11.5z"/>
<path class="st2" d="M21.9,11.2c0.5-0.5,1.3-0.6,1.9-0.4c0.6,0.2,1,0.8,1.2,1.4c-0.9,0.4-1.8,0.8-2.7,1.1c0.1,0.2,0.3,0.5,0.6,0.5
	c0.4,0.1,0.8,0.1,1.1-0.2c0.1-0.1,0.2-0.2,0.3-0.3c0.2,0.2,0.5,0.3,0.7,0.5c-0.3,0.5-0.9,0.8-1.5,0.9c-0.7,0.1-1.4-0.2-1.8-0.7
	C21,13.3,21.1,11.9,21.9,11.2 M22.3,12c-0.1,0.2-0.2,0.5-0.2,0.7c0.6-0.3,1.2-0.5,1.8-0.8c-0.1-0.2-0.3-0.4-0.6-0.4
	C23,11.4,22.5,11.6,22.3,12z"/>
</svg>
