<?xml version="1.0" encoding="utf-8"?>
<!-- Generator: Adobe Illustrator 25.2.0, SVG Export Plug-In . SVG Version: 6.00 Build 0)  -->
<svg version="1.1" id="Слой_1" xmlns="http://www.w3.org/2000/svg" xmlns:xlink="http://www.w3.org/1999/xlink" x="0px" y="0px"
	 viewBox="0 0 25 25" style="enable-background:new 0 0 25 25;" xml:space="preserve">
<style type="text/css">
	.st0{fill:#FFDF9E;stroke:#FFDF9E;stroke-miterlimit:10;}
	.st1{fill:#EC2227;}
	.st2{fill:#07A64F;}
	.st3{fill:#010101;}
	.st4{fill:#231F20;}
</style>
<path class="st0" d="M8.5,5.8C9.6,5.3,11,5,12.4,5c1.3,0,2.6,0.2,3.8,0.8c-2.1,0.1-3.8,1.8-3.8,3.9C12.4,7.5,10.6,5.8,8.5,5.8z"/>
<circle class="st1" cx="8.3" cy="9.7" r="0.6"/>
<circle class="st2" cx="16.2" cy="9.7" r="0.6"/>
<path class="st3" d="M8.4,7.8c-1.1,0-1.9,0.9-1.9,1.9s0.9,1.9,1.9,1.9c1.1,0,1.9-0.9,1.9-1.9S9.5,7.8,8.4,7.8L8.4,7.8z M8.4,11
	c-0.7,0-1.3-0.6-1.3-1.3c0-0.7,0.6-1.3,1.3-1.3c0.7,0,1.3,0.6,1.3,1.3c0,0,0,0,0,0C9.8,10.4,9.2,11,8.4,11C8.4,11,8.4,11,8.4,11
	L8.4,11z M20.3,5.8h-2.6c-1.3-0.9-3.2-1.5-5.3-1.5S8.4,4.9,7,5.8H4.5C4.9,6.3,5.2,7,5.3,7.4C4,9.2,4.4,11.6,6.2,12.9
	c1.7,1.2,4,0.9,5.3-0.7c0.3,0.4,0.6,0.8,0.9,1.2c0,0,0.6-0.8,0.9-1.2c1.4,1.7,3.8,1.9,5.5,0.5c1.6-1.3,1.9-3.6,0.7-5.3
	C19.6,7,19.9,6.3,20.3,5.8z M8.5,12.9c-1.7,0-3.2-1.4-3.2-3.2c0-1.7,1.4-3.2,3.2-3.2c1.7,0,3.2,1.4,3.2,3.2
	C11.6,11.5,10.2,12.9,8.5,12.9C8.5,12.9,8.5,12.9,8.5,12.9z M8.5,5.8C9.6,5.3,11,5,12.4,5c1.3,0,2.6,0.2,3.8,0.8
	c-2.1,0.1-3.8,1.8-3.8,3.9C12.4,7.5,10.7,5.8,8.5,5.8L8.5,5.8z M16.3,12.9c-1.7,0-3.2-1.4-3.2-3.2s1.4-3.2,3.2-3.2
	c1.7,0,3.2,1.4,3.2,3.2l0,0C19.5,11.5,18.1,12.9,16.3,12.9z M16.3,7.8c-1.1,0-1.9,0.9-1.9,1.9s0.9,1.9,1.9,1.9s1.9-0.9,1.9-1.9
	c0,0,0,0,0,0C18.3,8.6,17.4,7.8,16.3,7.8z M16.3,11c-0.7,0-1.3-0.6-1.3-1.3c0-0.7,0.6-1.3,1.3-1.3c0.7,0,1.3,0.6,1.3,1.3
	C17.7,10.4,17.1,11,16.3,11C16.3,11,16.3,11,16.3,11L16.3,11z"/>
<path class="st4" d="M21.2,6.5h-0.1V6h0.2c0.1,0,0.2,0,0.2,0.2c0,0.1,0,0.1-0.1,0.1l0.1,0.2h-0.1l-0.1-0.2h0L21.2,6.5z M21.2,6.2
	c0,0,0.1,0,0.1,0c0,0,0,0,0-0.1s0-0.1,0-0.1c0,0-0.1,0-0.1,0V6.2z"/>
<path class="st4" d="M21.3,5.8c-0.3,0-0.5,0.2-0.5,0.5c0,0.3,0.2,0.5,0.5,0.5c0.3,0,0.5-0.2,0.5-0.5S21.5,5.8,21.3,5.8L21.3,5.8z
	 M21.3,6.6c-0.2,0-0.4-0.2-0.4-0.4s0.2-0.4,0.4-0.4s0.4,0.2,0.4,0.4S21.5,6.6,21.3,6.6L21.3,6.6z"/>
<path class="st2" d="M24.4,17.3h-0.1v-0.5h0.2c0.1,0,0.2,0,0.2,0.2c0,0.1,0,0.1-0.1,0.1l0.1,0.2h-0.1l-0.1-0.2h0L24.4,17.3z
	 M24.4,17.1c0,0,0.1,0,0.1,0c0,0,0,0,0-0.1s0-0.1,0-0.1c0,0-0.1,0-0.1,0V17.1z"/>
<path class="st2" d="M24.5,16.6c-0.3,0-0.5,0.2-0.5,0.5c0,0.3,0.2,0.5,0.5,0.5c0.3,0,0.5-0.2,0.5-0.5C25,16.8,24.8,16.6,24.5,16.6
	C24.5,16.6,24.5,16.6,24.5,16.6z M24.5,17.5c-0.2,0-0.4-0.2-0.4-0.4c0-0.2,0.2-0.4,0.4-0.4c0.2,0,0.4,0.2,0.4,0.4
	C24.9,17.3,24.7,17.5,24.5,17.5C24.5,17.5,24.5,17.5,24.5,17.5L24.5,17.5z"/>
<path class="st4" d="M1.7,17.3v-0.4H1v-0.6l-0.5,0.2v0.5H0v0.4h0.4v1.4c0,0.6,0.3,0.9,0.7,0.9c0.2,0,0.3,0,0.5-0.1l0,0l0-0.4l0,0
	c-0.1,0-0.2,0-0.3,0c-0.1,0-0.2,0-0.3-0.1C1,18.9,0.9,18.8,1,18.6v-1.3L1.7,17.3z"/>
<path class="st4" d="M3.5,16.8c0,0-0.1,0-0.1,0c-0.2,0-0.3,0.1-0.5,0.2c-0.1,0.1-0.2,0.2-0.3,0.4l0-0.5H2.1v0c0,0.2,0,0.5,0,0.8v1.8
	h0.6v-1.4c0-0.2,0.1-0.4,0.2-0.6c0.1-0.1,0.3-0.2,0.5-0.2c0.1,0,0.1,0,0.2,0l0,0L3.5,16.8L3.5,16.8z"/>
<path class="st4" d="M4,16.8h0.6v2.7H4V16.8z"/>
<path class="st4" d="M4.3,16.4c0.2,0,0.3-0.1,0.3-0.3c0,0,0,0,0,0c0-0.1,0-0.2-0.1-0.2c-0.1-0.1-0.2-0.1-0.2-0.1
	c-0.1,0-0.2,0-0.3,0.1C4,15.9,3.9,16,3.9,16.1c0,0.1,0,0.2,0.1,0.2C4.1,16.4,4.2,16.4,4.3,16.4z"/>
<path class="st4" d="M7.2,17.2c-0.2-0.2-0.5-0.4-0.8-0.4c-0.4,0-0.7,0.2-0.9,0.5l0-0.4H5v0c0,0.2,0,0.5,0,0.9v2.9h0.6v-1.4
	c0.1,0.1,0.2,0.2,0.3,0.2c0.2,0.1,0.3,0.1,0.5,0.1c0.3,0,0.7-0.1,0.9-0.4c0.2-0.3,0.3-0.6,0.3-1.1C7.6,17.8,7.5,17.4,7.2,17.2
	L7.2,17.2z M5.9,17.4c0.1-0.1,0.2-0.1,0.4-0.1c0.2,0,0.4,0.1,0.5,0.3C6.9,17.7,7,17.9,7,18.2c0,0.3-0.1,0.5-0.2,0.7
	c-0.2,0.3-0.7,0.3-1,0.1c0,0,0,0-0.1-0.1c-0.1-0.1-0.2-0.3-0.2-0.5V18c0-0.1,0-0.2,0.1-0.3C5.7,17.6,5.8,17.4,5.9,17.4z"/>
<g>
	<path class="st2" d="M10,19.5c0-0.2,0-0.4,0-0.6v-1c0-0.4-0.1-0.6-0.3-0.8c-0.2-0.2-0.4-0.3-0.8-0.3c-0.3,0-0.6,0.1-0.9,0.2l0,0
		l0.1,0.4l0,0c0.2-0.1,0.5-0.2,0.7-0.2c0.2,0,0.3,0,0.4,0.2c0.1,0.1,0.2,0.3,0.1,0.4v0c-0.5,0-0.9,0.1-1.2,0.3
		c-0.3,0.2-0.4,0.4-0.4,0.8c0,0.2,0.1,0.4,0.2,0.6c0.2,0.2,0.4,0.2,0.6,0.2c0.3,0,0.6-0.1,0.8-0.4l0.1,0.3L10,19.5L10,19.5z M9.3,19
		c-0.1,0.1-0.3,0.2-0.5,0.2c-0.1,0-0.2,0-0.3-0.1c-0.1-0.1-0.1-0.2-0.1-0.3c0-0.2,0.1-0.3,0.2-0.4c0.2-0.1,0.4-0.1,0.9-0.1v0.4
		C9.4,18.8,9.4,18.9,9.3,19L9.3,19z"/>
	<path class="st2" d="M12.8,19.5L12.8,19.5c0-0.2,0-0.4,0-0.7v-3.2h-0.6v1.5c-0.1-0.1-0.2-0.2-0.3-0.2c-0.2-0.1-0.3-0.1-0.5-0.1
		c-0.3,0-0.6,0.1-0.9,0.4c-0.2,0.3-0.4,0.7-0.3,1c0,0.4,0.1,0.7,0.3,1c0.2,0.2,0.5,0.4,0.8,0.4c0.2,0,0.4,0,0.5-0.1
		c0.1-0.1,0.2-0.2,0.3-0.3l0,0.4L12.8,19.5z M12.2,17.9v0.4c0,0.2-0.1,0.4-0.2,0.5c-0.1,0.1-0.3,0.2-0.5,0.2c-0.2,0-0.4-0.1-0.5-0.3
		c-0.1-0.2-0.2-0.4-0.2-0.7c0-0.2,0.1-0.5,0.2-0.7c0.2-0.3,0.6-0.3,0.9-0.1c0,0,0,0,0.1,0.1C12.2,17.6,12.3,17.8,12.2,17.9z"/>
	<path class="st2" d="M15.1,16.8c0,0-0.7,1.4-0.7,1.6c-0.1-0.2-0.7-1.6-0.7-1.6H13l1.3,2.7l1.3-2.7L15.1,16.8z"/>
	<path class="st2" d="M15.9,16.8h0.6v2.7h-0.6V16.8z"/>
	<path class="st2" d="M16.2,16.4c0.2,0,0.3-0.1,0.3-0.3c0,0,0,0,0,0c0-0.1,0-0.2-0.1-0.2c-0.1-0.1-0.2-0.1-0.2-0.1
		c-0.1,0-0.2,0-0.3,0.1c-0.1,0.1-0.1,0.2-0.1,0.2c0,0.1,0,0.2,0.1,0.2C16,16.4,16.1,16.4,16.2,16.4L16.2,16.4z"/>
	<path class="st2" d="M18.7,18.3c-0.2-0.2-0.3-0.3-0.6-0.3c-0.1,0-0.3-0.1-0.4-0.2c-0.1-0.1-0.1-0.1-0.1-0.2c0-0.1,0-0.2,0.1-0.2
		c0.1-0.1,0.2-0.1,0.3-0.1c0.2,0,0.4,0.1,0.6,0.2l0,0l0.1-0.4l0,0c-0.2-0.1-0.4-0.2-0.7-0.2c-0.3,0-0.5,0.1-0.7,0.2
		c-0.2,0.1-0.3,0.4-0.3,0.6c0,0.3,0.2,0.6,0.7,0.8c0.1,0,0.3,0.1,0.4,0.2c0.1,0.1,0.1,0.2,0.1,0.3c0,0.1,0,0.2-0.1,0.3
		c-0.1,0.1-0.2,0.1-0.4,0.1c-0.2,0-0.5-0.1-0.7-0.2l0,0L17,19.4l0,0c0.2,0.1,0.5,0.2,0.8,0.2c0.3,0,0.5-0.1,0.8-0.2
		c0.2-0.1,0.3-0.4,0.3-0.6C18.8,18.6,18.8,18.4,18.7,18.3L18.7,18.3z"/>
	<path class="st2" d="M21.3,17.2c-0.2-0.3-0.6-0.4-0.9-0.4c-0.4,0-0.7,0.1-0.9,0.4c-0.3,0.3-0.4,0.7-0.4,1c0,0.4,0.1,0.7,0.4,1
		c0.2,0.3,0.6,0.4,0.9,0.4c0.2,0,0.5-0.1,0.7-0.2c0.2-0.1,0.4-0.3,0.5-0.5c0.1-0.2,0.2-0.5,0.2-0.8C21.7,17.8,21.6,17.4,21.3,17.2
		L21.3,17.2z M20.4,19.2c-0.2,0-0.4-0.1-0.5-0.3c-0.1-0.2-0.2-0.4-0.2-0.7c0-0.3,0.1-0.5,0.2-0.7c0.1-0.2,0.3-0.3,0.6-0.3
		c0.2,0,0.4,0.1,0.5,0.3c0.1,0.2,0.2,0.4,0.2,0.7c0,0.3-0.1,0.5-0.2,0.7C20.8,19.1,20.6,19.2,20.4,19.2L20.4,19.2z"/>
	<path class="st2" d="M23.6,16.8c0,0-0.1,0-0.1,0c-0.2,0-0.3,0.1-0.5,0.2c-0.1,0.1-0.2,0.2-0.3,0.4l0-0.5h-0.5v0c0,0.2,0,0.5,0,0.8
		v1.8h0.6v-1.4c0-0.2,0.1-0.4,0.2-0.6c0.1-0.1,0.3-0.2,0.5-0.2c0.1,0,0.1,0,0.2,0l0,0L23.6,16.8L23.6,16.8z"/>
</g>
</svg>
