<?xml version="1.0" encoding="utf-8"?>
<!-- Generator: Adobe Illustrator 25.2.0, SVG Export Plug-In . SVG Version: 6.00 Build 0)  -->
<svg version="1.1" id="Layer_1" xmlns="http://www.w3.org/2000/svg" xmlns:xlink="http://www.w3.org/1999/xlink" x="0px" y="0px"
	 viewBox="0 0 25 25" style="enable-background:new 0 0 25 25;" xml:space="preserve">
<style type="text/css">
	.st0{fill:#212529;}
</style>
<path class="st0" d="M12.5,25c-0.1,0-0.3,0-0.4-0.1L0.5,19.1C0.2,18.9,0,18.6,0,18.3V6.7c0-0.3,0.2-0.6,0.5-0.7l11.7-5.8
	c0.2-0.1,0.5-0.1,0.7,0l11.7,5.8C24.8,6.1,25,6.4,25,6.7v11.6c0,0.3-0.2,0.6-0.5,0.7l-11.7,5.8C12.8,24.9,12.6,25,12.5,25z
	 M1.7,17.8l10.8,5.4l10.8-5.4V7.2L12.5,1.8L1.7,7.2V17.8z M24.2,18.3L24.2,18.3z"/>
<path class="st0" d="M12.5,13.3c-0.1,0-0.3,0-0.4-0.1L0.5,7.4C0.1,7.2-0.1,6.7,0.1,6.3s0.7-0.6,1.1-0.4l11.3,5.6l11.3-5.6
	c0.4-0.2,0.9,0,1.1,0.4c0.2,0.4,0,0.9-0.4,1.1l-11.7,5.8C12.8,13.3,12.6,13.3,12.5,13.3z"/>
<path class="st0" d="M18.3,10.4c-0.1,0-0.3,0-0.4-0.1L6.3,4.5C5.9,4.3,5.7,3.8,5.9,3.4S6.6,2.8,7,3l11.7,5.8
	c0.4,0.2,0.6,0.7,0.4,1.1C18.9,10.2,18.6,10.4,18.3,10.4L18.3,10.4z"/>
<path class="st0" d="M12.5,25c-0.5,0-0.8-0.4-0.8-0.8V12.5c0-0.5,0.4-0.8,0.8-0.8s0.8,0.4,0.8,0.8v11.7C13.3,24.6,13,25,12.5,25z"/>
</svg>
