<?xml version="1.0" encoding="utf-8"?>
<!-- Generator: Adobe Illustrator 25.2.0, SVG Export Plug-In . SVG Version: 6.00 Build 0)  -->
<svg version="1.1" id="Слой_1" xmlns="http://www.w3.org/2000/svg" xmlns:xlink="http://www.w3.org/1999/xlink" x="0px" y="0px"
	 viewBox="0 0 25 25" style="enable-background:new 0 0 25 25;" xml:space="preserve">
<style type="text/css">
	.st0{fill:#FD5C63;}
</style>
<g>
	<g>
		<path class="st0" d="M12.5,3.3c-0.5,0-0.8,0.4-0.8,0.8v7.5H7.5c-0.5,0-0.8,0.4-0.8,0.8c0,0.5,0.4,0.8,0.8,0.8h5
			c0.5,0,0.8-0.4,0.8-0.8V4.2C13.3,3.7,13,3.3,12.5,3.3z M12.5,0C5.6,0,0,5.6,0,12.5S5.6,25,12.5,25S25,19.4,25,12.5S19.4,0,12.5,0z
			 M12.5,23.3c-6,0-10.8-4.9-10.8-10.8S6.5,1.7,12.5,1.7s10.8,4.9,10.8,10.8S18.5,23.3,12.5,23.3z"/>
	</g>
</g>
</svg>
