<?xml version="1.0" encoding="utf-8"?>
<!-- Generator: Adobe Illustrator 25.2.0, SVG Export Plug-In . SVG Version: 6.00 Build 0)  -->
<svg version="1.1" id="Слой_1" xmlns="http://www.w3.org/2000/svg" xmlns:xlink="http://www.w3.org/1999/xlink" x="0px" y="0px"
	 viewBox="0 0 25 25" style="enable-background:new 0 0 25 25;" xml:space="preserve">
<style type="text/css">
	.st0{fill:#FD5C63;}
</style>
<g>
	<g>
		<path class="st0" d="M23.7,10.1c-0.7-0.7-1.6-0.9-2.3-0.7L21.5,9c0-0.3,0-0.8-0.3-1.1c-0.3-0.3-0.6-0.5-1.1-0.5H1.9
			C1.4,7.5,1.1,7.7,0.8,8S0.5,8.6,0.5,9l1.2,6.6C2.3,19.3,5.5,22,9.3,22h3.5c3.8,0,6.9-2.5,7.5-6.3c0.3,0.1,0.5,0.1,0.8,0.1
			c1.2,0,2.3-0.6,2.9-1.7C24.8,12.8,24.6,11,23.7,10.1L23.7,10.1z M12.7,20.6H9.3c-3,0-5.6-2.1-6-5.1L2.2,9.2h17.6l-1.1,6.3
			C18.3,18.5,15.7,20.6,12.7,20.6z M22.5,13.3c-0.3,0.5-0.9,1-2,0.9l0.6-3.3c0.3-0.2,0.8-0.4,1.4,0.2C23,11.4,23,12.5,22.5,13.3z"/>
		<path class="st0" d="M6.7,4.7c0,0.9,0.5,1.5,0.5,1.7c0.2,0.2,0.3,0.3,0.6,0.3c0.2,0,0.2,0,0.5,0c0.5-0.3,0.5-0.8,0.3-1.1
			c0,0-0.3-0.5-0.3-0.9s0.3-0.9,0.3-0.9S9,3,9,2.1S8.5,0.6,8.5,0.5C8.2,0,7.8,0,7.5,0.2C7,0.5,7,0.9,7.2,1.2c0,0,0.3,0.5,0.3,0.9
			S7.2,3,7.2,3S6.7,3.8,6.7,4.7z"/>
		<path class="st0" d="M10,4.7c0,0.9,0.5,1.7,0.5,1.7c0.2,0.2,0.3,0.3,0.6,0.3c0.2,0,0.3,0,0.5,0C12,6.3,12,5.9,11.8,5.6
			c0,0-0.3-0.5-0.3-0.9s0.3-0.9,0.3-0.9s0.5-0.8,0.5-1.7s-0.5-1.5-0.5-1.7c-0.3-0.4-0.7-0.4-1-0.2c-0.5,0.3-0.5,0.8-0.3,1.1
			c0,0,0.3,0.5,0.3,0.9S10.5,3,10.5,3S10,3.8,10,4.7z"/>
		<path class="st0" d="M13.3,4.7c0,0.9,0.5,1.7,0.5,1.7c0.2,0.2,0.3,0.3,0.6,0.3c0.2,0,0.3,0,0.5,0c0.5-0.3,0.5-0.8,0.3-1.1
			c0,0-0.3-0.5-0.3-0.9s0.3-0.9,0.3-0.9s0.5-0.8,0.5-1.7s-0.5-1.5-0.5-1.7c-0.3-0.5-0.6-0.6-1.1-0.3s-0.5,0.8-0.3,1.1
			c0,0,0.3,0.5,0.3,0.9S13.8,3,13.8,3S13.3,3.8,13.3,4.7L13.3,4.7z"/>
		<path class="st0" d="M20.9,23.5H1.3c-0.5,0-0.8,0.3-0.8,0.8s0.3,0.8,0.8,0.8h19.6c0.5,0,0.8-0.3,0.8-0.8
			C21.6,23.8,21.3,23.5,20.9,23.5z"/>
	</g>
</g>
</svg>
