<?xml version="1.0" encoding="utf-8"?>
<!-- Generator: Adobe Illustrator 25.2.0, SVG Export Plug-In . SVG Version: 6.00 Build 0)  -->
<svg version="1.1" id="Layer_1" xmlns="http://www.w3.org/2000/svg" xmlns:xlink="http://www.w3.org/1999/xlink" x="0px" y="0px"
	 viewBox="0 0 25 25" style="enable-background:new 0 0 25 25;" xml:space="preserve">
<style type="text/css">
	.st0{fill:#212529;}
</style>
<path class="st0" d="M24.2,8.5c0-2.8-2.3-5.1-5.1-5c-1.4,0-2.7,0.6-3.6,1.6h-6C7.6,3.1,4.4,3,2.3,4.9c-1,0.9-1.6,2.3-1.6,3.6
	C0.3,11.7,0,14.8,0,18c0,1.9,0.8,3.1,2.3,3.4c0.3,0.1,0.6,0.1,0.8,0.1c1.4,0,2.6-0.9,3-2.2c0.3-0.9,0.9-2,1.2-2.8
	c1.6,0.7,3.4,0,4.1-1.5c0.1-0.2,0.1-0.3,0.2-0.5h1.8c0.4,1.7,2.1,2.7,3.8,2.2c0.2,0,0.3-0.1,0.5-0.2c0.3,0.7,0.9,1.9,1.2,2.8
	c0.4,1.3,1.6,2.2,3,2.2c0.3,0,0.6,0,0.9-0.1c1.5-0.3,2.3-1.5,2.3-3.4C25,14.8,24.7,11.7,24.2,8.5z M5.4,19c-0.3,1.2-1.6,2-2.9,1.6
	c0,0,0,0-0.1,0C1.1,20.3,0.8,19,0.8,18c0-2.4,0.2-4.8,0.5-7.2c0.8,1.7,2.4,2.8,4.2,2.9l0,0c0,0.9,0.4,1.8,1.2,2.4
	C6.2,16.9,5.7,18.1,5.4,19z M8.6,16c-1.3,0-2.3-1-2.3-2.3c0-0.1,0-0.2,0-0.3v-0.4H5.9c-2.4,0-4.3-1.9-4.3-4.3c0-2.4,1.9-4.3,4.3-4.3
	s4.3,1.9,4.3,4.3c0,0.9-0.3,1.7-0.7,2.4l-0.2,0.3l0.4,0.2c1.2,0.5,1.7,1.9,1.2,3.1C10.4,15.5,9.6,16,8.6,16z M11.7,13.7
	c0-1.1-0.5-2-1.4-2.6c0.9-1.6,0.9-3.6-0.1-5.2h4.7c-1,1.6-1.1,3.6-0.2,5.2c-0.9,0.6-1.4,1.6-1.4,2.6H11.7z M14.1,13.7
	c0-0.9,0.5-1.7,1.4-2.1l0.4-0.2L15.6,11c-1.3-2-0.8-4.6,1.2-6s4.6-0.8,6,1.2s0.8,4.6-1.2,6c-0.7,0.5-1.5,0.7-2.4,0.7h-0.5l0.1,0.4
	c0,0.1,0,0.2,0,0.3c0,1.3-1,2.3-2.3,2.3S14.1,15,14.1,13.7z M22.6,20.6c-1.2,0.4-2.5-0.3-2.9-1.6c0,0,0,0,0-0.1
	c-0.3-0.9-0.9-2.1-1.3-2.9c0.7-0.6,1.2-1.5,1.2-2.4l0,0c1.8-0.1,3.4-1.3,4.2-2.9c0.3,2.4,0.5,4.8,0.5,7.2
	C24.2,19,23.9,20.3,22.6,20.6z"/>
<path class="st0" d="M7,9.8h1.6V7.4H7V5.9H4.7v1.6H3.1v2.3h1.6v1.6H7V9.8z M6.2,10.5H5.5V9H3.9V8.2h1.6V6.6h0.8v1.6h1.6V9H6.2V10.5z
	"/>
<path class="st0" d="M19.2,6.9c0.6,0,1.2-0.5,1.2-1.2s-0.5-1.2-1.2-1.2c-0.6,0-1.2,0.5-1.2,1.2S18.5,6.9,19.2,6.9z M19.2,5.4
	c0.2,0,0.4,0.2,0.4,0.4c0,0.2-0.2,0.4-0.4,0.4S18.8,6,18.8,5.7C18.8,5.5,18.9,5.4,19.2,5.4z"/>
<path class="st0" d="M19.2,12.1c0.6,0,1.2-0.5,1.2-1.2s-0.5-1.2-1.2-1.2c-0.6,0-1.2,0.5-1.2,1.2S18.5,12.1,19.2,12.1L19.2,12.1z
	 M19.2,10.5c0.2,0,0.4,0.2,0.4,0.4s-0.2,0.4-0.4,0.4s-0.4-0.2-0.4-0.4S18.9,10.5,19.2,10.5z"/>
<path class="st0" d="M16.4,9.7c0.6,0,1.2-0.5,1.2-1.2s-0.5-1.2-1.2-1.2c-0.6,0-1.2,0.5-1.2,1.2S15.8,9.7,16.4,9.7z M16.4,8.2
	c0.2,0,0.4,0.2,0.4,0.4c0,0.2-0.2,0.4-0.4,0.4S16,8.8,16,8.5C16,8.3,16.2,8.2,16.4,8.2z"/>
<path class="st0" d="M21.9,9.3c0.6,0,1.2-0.5,1.2-1.2S22.5,7,21.9,7s-1.2,0.5-1.2,1.2S21.2,9.3,21.9,9.3z M21.9,7.8
	c0.2,0,0.4,0.2,0.4,0.4c0,0.2-0.2,0.4-0.4,0.4s-0.4-0.2-0.4-0.4C21.5,7.9,21.7,7.8,21.9,7.8z"/>
<path class="st0" d="M8.6,12.2c-0.9,0-1.6,0.7-1.6,1.6s0.7,1.6,1.6,1.6s1.6-0.7,1.6-1.6S9.5,12.2,8.6,12.2z M8.6,14.5
	c-0.4,0-0.8-0.3-0.8-0.8c0-0.4,0.3-0.8,0.8-0.8s0.8,0.3,0.8,0.8C9.4,14.2,9,14.5,8.6,14.5z"/>
<path class="st0" d="M16.4,12.1c-0.9,0-1.6,0.7-1.6,1.6s0.7,1.6,1.6,1.6s1.6-0.7,1.6-1.6S17.3,12.1,16.4,12.1z M16.4,14.5
	c-0.4,0-0.8-0.3-0.8-0.8s0.3-0.8,0.8-0.8c0.4,0,0.8,0.3,0.8,0.8S16.8,14.5,16.4,14.5z"/>
</svg>
