<?xml version="1.0" encoding="utf-8"?>
<!-- Generator: Adobe Illustrator 25.2.0, SVG Export Plug-In . SVG Version: 6.00 Build 0)  -->
<svg version="1.1" id="Capa_1" xmlns="http://www.w3.org/2000/svg" xmlns:xlink="http://www.w3.org/1999/xlink" x="0px" y="0px"
	 viewBox="0 0 25 25" style="enable-background:new 0 0 25 25;" xml:space="preserve">
<style type="text/css">
	.st0{fill:#FD5C63;}
</style>
<g>
	<g>
		<rect x="6.3" y="19.2" class="st0" width="12.5" height="0.8"/>
		<rect x="6.3" y="21.7" class="st0" width="12.5" height="0.8"/>
		<circle class="st0" cx="19.6" cy="11.7" r="0.8"/>
		<path class="st0" d="M22.1,7.5h-1.7V1.7c0-0.9-0.8-1.7-1.7-1.7H6.3C5.3,0,4.6,0.7,4.6,1.7v5.8H2.9c-1.4,0-2.5,1.1-2.5,2.5v7.5
			c0,1.4,1.1,2.5,2.5,2.5h1.7v3.3c0,0.9,0.7,1.7,1.7,1.7h12.5c0.9,0,1.7-0.8,1.7-1.7V20h1.7c1.4,0,2.5-1.1,2.5-2.5V10
			C24.6,8.6,23.5,7.5,22.1,7.5z M5.4,1.7c0-0.4,0.3-0.8,0.8-0.8h12.5c0.4,0,0.8,0.3,0.8,0.8v5.8H5.4V1.7z M19.6,23.3
			c0,0.4-0.3,0.8-0.8,0.8H6.3c-0.4,0-0.8-0.3-0.8-0.8v-5.8h14.2V23.3z M23.7,17.5c0,0.9-0.8,1.7-1.7,1.7h-1.7v-2.5H4.6v2.5H2.9
			c-0.9,0-1.7-0.8-1.7-1.7V10c0-0.9,0.7-1.7,1.7-1.7h19.2c0.9,0,1.7,0.7,1.7,1.7L23.7,17.5L23.7,17.5z"/>
	</g>
</g>
</svg>
