<svg xmlns="http://www.w3.org/2000/svg" xmlns:xlink="http://www.w3.org/1999/xlink" width="25" height="225">

   <defs>
      <g viewBox='0 0 25 25' id='box'>
         <style>
            .st0 {
               fill: #212529
            }
         </style>
         <path class="st0"
            d="M12.5 25l-.4-.1L.5 19.1c-.3-.2-.5-.5-.5-.8V6.7c0-.3.2-.6.5-.7L12.2.2h.7L24.6 6c.2.1.4.4.4.7v11.6c0 .3-.2.6-.5.7l-11.7 5.8-.3.2zM1.7 17.8l10.8 5.4 10.8-5.4V7.2L12.5 1.8 1.7 7.2v10.6zm22.5.5z">
         </path>
         <path class="st0" d="M12.5 13.3l-.4-.1L.5 7.4c-.4-.2-.6-.7-.4-1.1s.7-.6 1.1-.4l11.3 5.6 11.3-5.6c.4-.2.9 0 1.1.4.2.4 0 .9-.4 1.1l-11.7 5.8-.3.1z">
         </path>
         <path class="st0"
            d="M18.3 10.4l-.4-.1L6.3 4.5c-.4-.2-.6-.7-.4-1.1S6.6 2.8 7 3l11.7 5.8c.4.2.6.7.4 1.1-.2.3-.5.5-.8.5zM12.5 25a.8.8 0 01-.8-.8V12.5c0-.5.4-.8.8-.8s.8.4.8.8v11.7c0 .4-.3.8-.8.8z">
         </path>
      </g>
      <g viewBox='0 0 25 25' id='clock'>
         <path
            d="M12.5 3.3c-.5 0-.8.4-.8.8v7.5H7.5c-.5 0-.8.4-.8.8 0 .5.4.8.8.8h5c.5 0 .8-.4.8-.8V4.2c0-.5-.3-.9-.8-.9zm0-3.3a12.5 12.5 0 100 25 12.5 12.5 0 000-25zm0 23.3a10.8 10.8 0 110-21.6 10.8 10.8 0 010 21.6z"
            fill="#fd5c63"></path>
      </g>
      <g viewBox='0 0 25 25' id='coffee'>
         <path
            d="M23.7 10.1c-.7-.7-1.6-.9-2.3-.7l.1-.4c0-.3 0-.8-.3-1.1-.3-.3-.6-.5-1.1-.5H1.9c-.5.1-.8.3-1.1.6s-.3.6-.3 1l1.2 6.6A7.6 7.6 0 009.3 22h3.5c3.8 0 6.9-2.5 7.5-6.3l.8.1c1.2 0 2.3-.6 2.9-1.7.8-1.3.6-3.1-.3-4zm-11 10.5H9.3a6 6 0 01-6-5.1L2.2 9.2h17.6l-1.1 6.3a6 6 0 01-6 5.1zm9.8-7.3c-.3.5-.9 1-2 .9l.6-3.3c.3-.2.8-.4 1.4.2.5.3.5 1.4 0 2.2zM6.7 4.7c0 .9.5 1.5.5 1.7.2.2.3.3.6.3h.5c.5-.3.5-.8.3-1.1 0 0-.3-.5-.3-.9s.3-.9.3-.9S9 3 9 2.1 8.5.6 8.5.5c-.3-.5-.7-.5-1-.3-.5.3-.5.7-.3 1 0 0 .3.5.3.9s-.3.9-.3.9-.5.8-.5 1.7zm3.3 0c0 .9.5 1.7.5 1.7.2.2.3.3.6.3h.5c.4-.4.4-.8.2-1.1 0 0-.3-.5-.3-.9s.3-.9.3-.9.5-.8.5-1.7-.5-1.5-.5-1.7c-.3-.4-.7-.4-1-.2-.5.3-.5.8-.3 1.1 0 0 .3.5.3.9s-.3.8-.3.8-.5.8-.5 1.7zm3.3 0c0 .9.5 1.7.5 1.7.2.2.3.3.6.3h.5c.5-.3.5-.8.3-1.1 0 0-.3-.5-.3-.9s.3-.9.3-.9.5-.8.5-1.7-.5-1.5-.5-1.7c-.3-.5-.6-.6-1.1-.3s-.5.8-.3 1.1c0 0 .3.5.3.9s-.3.9-.3.9-.5.8-.5 1.7zm7.6 18.8H1.3c-.5 0-.8.3-.8.8s.3.8.8.8h19.6c.5 0 .8-.3.8-.8-.1-.5-.4-.8-.8-.8z"
            fill="#fd5c63"></path>
      </g>
      <g viewBox='0 0 25 25' id='gamepad'>
         <style>
            .st0 {
               fill: #212529
            }
         </style>
         <path class="st0"
            d="M24.2 8.5a5 5 0 00-5.1-5c-1.4 0-2.7.6-3.6 1.6h-6a5.2 5.2 0 00-7.2-.2A5 5 0 00.7 8.5C.3 11.7 0 14.8 0 18c0 1.9.8 3.1 2.3 3.4l.8.1c1.4 0 2.6-.9 3-2.2l1.2-2.8c1.6.7 3.4 0 4.1-1.5l.2-.5h1.8a3 3 0 003.8 2.2l.5-.2 1.2 2.8a3.1 3.1 0 003 2.2l.9-.1c1.5-.3 2.3-1.5 2.3-3.4-.1-3.2-.4-6.3-.9-9.5zM5.4 19c-.3 1.2-1.6 2-2.9 1.6h-.1C1.1 20.3.8 19 .8 18c0-2.4.2-4.8.5-7.2a5 5 0 004.2 2.9 3 3 0 001.2 2.4c-.5.8-1 2-1.3 2.9zm3.2-3c-1.3 0-2.3-1-2.3-2.3V13h-.4a4.3 4.3 0 01-4.3-4.3c0-2.4 1.9-4.3 4.3-4.3s4.3 1.9 4.3 4.3c0 .9-.3 1.7-.7 2.4l-.2.3.4.2c1.2.5 1.7 1.9 1.2 3.1-.5.8-1.3 1.3-2.3 1.3zm3.1-2.3a3 3 0 00-1.4-2.6c.9-1.6.9-3.6-.1-5.2h4.7a5.1 5.1 0 00-.2 5.2c-.9.6-1.4 1.6-1.4 2.6h-1.6zm2.4 0c0-.9.5-1.7 1.4-2.1l.4-.2-.3-.4c-1.3-2-.8-4.6 1.2-6s4.6-.8 6 1.2.8 4.6-1.2 6a4 4 0 01-2.4.7h-.5l.1.4v.3c0 1.3-1 2.3-2.3 2.3s-2.4-.9-2.4-2.2zm8.5 6.9c-1.2.4-2.5-.3-2.9-1.6v-.1L18.4 16c.7-.6 1.2-1.5 1.2-2.4a5.2 5.2 0 004.2-2.9c.3 2.4.5 4.8.5 7.2-.1 1.1-.4 2.4-1.7 2.7z">
         </path>
         <path class="st0"
            d="M7 9.8h1.6V7.4H7V5.9H4.7v1.6H3.1v2.3h1.6v1.6H7V9.8zm-.8.7h-.7V9H3.9v-.8h1.6V6.6h.8v1.6h1.6V9H6.2v1.5zm13-3.6c.6 0 1.2-.5 1.2-1.2s-.5-1.2-1.2-1.2c-.6 0-1.2.5-1.2 1.2s.5 1.2 1.2 1.2zm0-1.5c.2 0 .4.2.4.4s-.2.4-.4.4-.4-.2-.4-.5c0-.2.1-.3.4-.3zm0 6.7c.6 0 1.2-.5 1.2-1.2s-.5-1.2-1.2-1.2c-.6 0-1.2.5-1.2 1.2s.5 1.2 1.2 1.2zm0-1.6c.2 0 .4.2.4.4s-.2.4-.4.4-.4-.2-.4-.4.1-.4.4-.4zm-2.8-.8c.6 0 1.2-.5 1.2-1.2s-.5-1.2-1.2-1.2c-.6 0-1.2.5-1.2 1.2s.6 1.2 1.2 1.2zm0-1.5c.2 0 .4.2.4.4s-.2.4-.4.4-.4-.2-.4-.5c0-.2.2-.3.4-.3zm5.5 1.1c.6 0 1.2-.5 1.2-1.2S22.5 7 21.9 7s-1.2.5-1.2 1.2.5 1.1 1.2 1.1zm0-1.5c.2 0 .4.2.4.4s-.2.4-.4.4-.4-.2-.4-.4c0-.3.2-.4.4-.4zM8.6 12.2c-.9 0-1.6.7-1.6 1.6s.7 1.6 1.6 1.6 1.6-.7 1.6-1.6-.7-1.6-1.6-1.6zm0 2.3a.8.8 0 01-.8-.8c0-.4.3-.8.8-.8s.8.3.8.8-.4.8-.8.8zm7.8-2.4c-.9 0-1.6.7-1.6 1.6s.7 1.6 1.6 1.6 1.6-.7 1.6-1.6-.7-1.6-1.6-1.6zm0 2.4c-.4 0-.8-.3-.8-.8s.3-.8.8-.8c.4 0 .8.3.8.8s-.4.8-.8.8z">
         </path>
      </g>
      <g viewBox='0 0 25 25' id='lock'>
         <style>
            .st0 {
               fill: #fd5c63
            }
         </style>
         <path class="st0"
            d="M12.5 13.9c-1.3 0-2.3 1-2.3 2.3 0 .7.4 1.4.9 1.9V20c0 .7.6 1.4 1.4 1.4.7 0 1.4-.6 1.4-1.4v-1.9c.6-.5.9-1.1.9-1.9 0-1.3-1-2.3-2.3-2.3zm.5 3.6v2.4c0 .3-.2.5-.5.5s-.5-.2-.5-.5v-2.4c-.6-.2-.9-.7-.9-1.3 0-.7.6-1.4 1.4-1.4.7 0 1.4.6 1.4 1.4 0 .7-.4 1.1-.9 1.3z">
         </path>
         <path class="st0"
            d="M19.4 10.2V6.9a7 7 0 00-13.8 0v3.2a2.7 2.7 0 00-2.8 2.8v9.3C2.8 23.8 4 25 5.6 25h13.9c1.6 0 2.8-1.2 2.8-2.8V13a3 3 0 00-2.9-2.8zM6.5 6.9c0-3.3 2.7-6 6-6s6 2.7 6 6v3.2h-.9V6.9c0-2.8-2.3-5.1-5.1-5.1S7.4 4.2 7.4 6.9v3.2h-.9V6.9zm10.2 0v3.2H8.3V6.9c0-2.3 1.9-4.2 4.2-4.2s4.2 1.9 4.2 4.2zm4.6 15.3c0 1-.8 1.9-1.9 1.9H5.6c-1 0-1.9-.8-1.9-1.9V13c0-1 .8-1.9 1.9-1.9h13.9c1 0 1.9.8 1.9 1.9v9.2h-.1z">
         </path>
      </g>
      <g viewBox='0 0 25 25' id='monitor'>
         <path
            d="M23.8 2.5H1.2C.5 2.5 0 3 0 3.6v14c0 .6.5 1.2 1.2 1.2h8.6v2.6H7.2v1.1h10.5v-1.1h-2.5v-2.6h8.6c.6 0 1.2-.5 1.2-1.2v-14c0-.6-.5-1.1-1.2-1.1zm.2 15.2l-.2.2H1.2a.2.2 0 01-.2-.2v-14l.2-.2h22.7l.2.2v14z"
            fill="#fd5c63"></path>
      </g>
      <g viewBox='0 0 25 25' id='print'>
         <style>
            .st0 {
               fill: #fd5c63
            }
         </style>
         <path class="st0" d="M6.3 19.2h12.5v.8H6.3zm0 2.5h12.5v.8H6.3z"></path>
         <circle class="st0" cx="19.6" cy="11.7" r=".8"></circle>
         <path class="st0"
            d="M22.1 7.5h-1.7V1.7c0-.9-.8-1.7-1.7-1.7H6.3c-1 0-1.7.7-1.7 1.7v5.8H2.9A2.5 2.5 0 00.4 10v7.5c0 1.4 1.1 2.5 2.5 2.5h1.7v3.3c0 .9.7 1.7 1.7 1.7h12.5c.9 0 1.7-.8 1.7-1.7V20h1.7c1.4 0 2.5-1.1 2.5-2.5V10a2.6 2.6 0 00-2.6-2.5zM5.4 1.7c0-.4.3-.8.8-.8h12.5c.4 0 .8.3.8.8v5.8H5.4V1.7zm14.2 21.6c0 .4-.3.8-.8.8H6.3a.8.8 0 01-.8-.8v-5.8h14.2v5.8zm4.1-5.8c0 .9-.8 1.7-1.7 1.7h-1.7v-2.5H4.6v2.5H2.9c-.9 0-1.7-.8-1.7-1.7V10c0-.9.7-1.7 1.7-1.7h19.2c.9 0 1.7.7 1.7 1.7l-.1 7.5z">
         </path>
      </g>
      <g viewBox='0 0 25 25' id='shield'>
         <path
            d="M12.5 25l-.2-.1c-6-1.9-9.9-7.4-9.9-13.7V2.9L12.5 0l10.2 2.9v8.3c0 6.3-4 11.8-9.9 13.7l-.3.1zM3.8 4v7.2a13 13 0 008.7 12.3 13 13 0 008.7-12.3V4l-8.7-2.5L3.8 4z"
            fill="#fd5c63"></path>
      </g>
      <g viewBox='0 0 25 25' id='wifi'>
         <path
            d="M5.3 24.1c-1.2 1.2-3.2 1.2-4.4 0s-1.2-3.2 0-4.4a3.1 3.1 0 014.4 0 3 3 0 010 4.4zm-3-11.6l.3 3.1a6.5 6.5 0 016.8 6.8l3.1.3c.2-2.8-.7-5.5-2.7-7.5a9.8 9.8 0 00-7.5-2.7zm.1-6.2l.2 3.1a12.4 12.4 0 0113 13l3.1.2c.2-4.4-1.5-8.7-4.6-11.8S6.8 6.1 2.4 6.3zm0-6.3l.1 3.1C7.7 3 12.7 5 16.4 8.6c3.7 3.7 5.7 8.6 5.5 13.9l3.1.1A22 22 0 002.4 0z"
            fill="#fd5c63"></path>
      </g>
   </defs>

   <use x="0" y="0" xlink:href="#wifi" />
   <use x="0" y="25" xlink:href="#coffee" />
   <use x="0" y="50" xlink:href="#monitor" />
   <use x="0" y="75" xlink:href="#lock" />
   <use x="0" y="100" xlink:href="#shield" />
   <use x="0" y="125" xlink:href="#print" />
   <use x="0" y="150" xlink:href="#box" />
   <use x="0" y="175" xlink:href="#clock" />
   <use x="0" y="200" xlink:href="#gamepad" />

</svg>