<?xml version="1.0" encoding="utf-8"?>
<!-- Generator: Adobe Illustrator 25.2.0, SVG Export Plug-In . SVG Version: 6.00 Build 0)  -->
<svg version="1.1" id="Слой_1" xmlns="http://www.w3.org/2000/svg" xmlns:xlink="http://www.w3.org/1999/xlink" x="0px" y="0px"
	 viewBox="0 0 25 25" style="enable-background:new 0 0 25 25;" xml:space="preserve">
<style type="text/css">
	.st0{fill:#FD5C63;}
	.st1{fill:none;}
</style>
<g id="Layer_2">
	<path class="st0" d="M11.6,17.1c-0.2,0-0.5-0.1-0.7-0.3l-3.7-3.7c-0.4-0.4-0.4-0.9,0-1.3c0.4-0.4,0.9-0.4,1.3,0l3,3l5.8-5.8
		c0.4-0.4,0.9-0.4,1.3,0c0.4,0.4,0.4,0.9,0,1.3l-6.5,6.5C12.1,17,11.8,17.1,11.6,17.1z"/>
	<path class="st0" d="M12.5,24.5c-6.6,0-12-5.4-12-12s5.4-12,12-12s12,5.4,12,12S19.1,24.5,12.5,24.5z M12.5,2.3
		C6.9,2.3,2.3,6.9,2.3,12.5s4.5,10.2,10.2,10.2s10.2-4.5,10.2-10.2S18.1,2.3,12.5,2.3z"/>
</g>
<g id="frame">
	<rect x="-3.5" y="-3.5" class="st1" width="32" height="32"/>
</g>
</svg>
