<?xml version="1.0" encoding="utf-8"?>
<!-- Generator: Adobe Illustrator 25.2.0, SVG Export Plug-In . SVG Version: 6.00 Build 0)  -->
<svg version="1.1" xmlns="http://www.w3.org/2000/svg" xmlns:xlink="http://www.w3.org/1999/xlink" x="0px" y="0px"
	 viewBox="0 0 534.4 509.7" style="enable-background:new 0 0 534.4 509.7;" xml:space="preserve">
<style type="text/css">
	.st0{fill:#FD5C63;stroke:#FD5C63;stroke-width:29;stroke-miterlimit:10;}
</style>
<g id="Слой_2">
</g>
<g id="Capa_1">
	<g>
		<path class="st0" d="M270.7,406.8l144.8,87.4c5.2,3.1,11.6-1.5,10.2-7.4L387.3,322c-0.6-2.5,0.3-5.1,2.2-6.7l128-110.9
			c4.6-4,2.1-11.5-3.9-12l-168.5-14.3c-2.5-0.2-4.7-1.8-5.7-4.1L273.5,18.7c-2.4-5.6-10.2-5.6-12.6,0L195,174.1
			c-1,2.3-3.2,3.9-5.7,4.1L20.8,192.5c-6,0.5-8.5,8-3.9,12l128,110.9c1.9,1.7,2.8,4.3,2.2,6.7l-38.5,164.7c-1.4,5.9,5,10.5,10.2,7.4
			l144.8-87.4C265.8,405.5,268.5,405.5,270.7,406.8z"/>
	</g>
</g>
</svg>
