<?xml version="1.0" encoding="utf-8"?>
<!-- Generator: Adobe Illustrator 25.2.0, SVG Export Plug-In . SVG Version: 6.00 Build 0)  -->
<svg version="1.1" xmlns="http://www.w3.org/2000/svg" xmlns:xlink="http://www.w3.org/1999/xlink" x="0px" y="0px"
	 viewBox="0 0 610 509.7" style="enable-background:new 0 0 610 509.7;" xml:space="preserve">
<style type="text/css">
	.st0{fill:#FFFFFF;}
	.st1{fill:none;stroke:#FD5C63;stroke-width:29;stroke-miterlimit:10;}
</style>
<g id="Слой_2">
	<path class="st0" d="M0,0v509.7h610V0H0z M535.7,229.7c-7.3,8.5-17.3,14.4-27,19.8c-4.4,2.5-8.7,5.1-13,7.8
		c-0.1,0.1-0.2,0.1-0.3,0.2c-0.7,0.6-1.4,1.2-2.1,1.8c-1.9,1.7-3.7,3.5-5.5,5.3c-14.1,13.7-29,28.3-46.9,37
		c-6.9,3.3-14.1,5.7-21.3,8.1c0,0.6,0,1.3,0,1.9c0,5,0.3,10,0.8,15c0,0.5,0.1,1.5,0.1,2.3c0-0.4,0-0.8,0-1.3c0,1.1,0.4,2.5,0.6,3.5
		c0.4,2.3,0.8,4.7,1.3,7c1,4.9,2.1,9.9,3.2,14.8c3.6,15.7,7.4,31.5,9,47.5c1.8,4,3.6,8,5.5,12c5.7,12.5,11.3,25,16.3,37.8
		c3.7,9.7-2.6,20.8-10.6,25.9c-9,5.8-20.2,2.8-27.8-3.6c-4.8-4.1-9.5-8.3-14.4-12.3c-0.6-0.5-1.2-0.9-1.7-1.4
		c-0.1-0.1-0.1-0.1-0.2-0.1c-0.5-0.3-1-0.6-1.1-0.7c-2.3-1.6-4.7-3.1-7.2-4.4c-0.5-0.3-1.2-0.8-2-1.2c-0.1,0-0.5-0.2-1.4-0.6
		c-0.5-0.2-0.9-0.4-1.4-0.6c-2.7-1.1-5.3-2.1-8-3.2c-7.1-2.9-14.2-5.9-21.2-9.1c-10.1-4.5-20-9.5-29.4-15.3
		c-5.4-3.3-10.4-6.9-15.4-10.8c-2.6-2-5.1-4.1-7.6-6.2c-0.7-0.6-1.4-1.2-2.1-1.7c-0.2-0.1-0.4-0.3-0.5-0.4c-0.7-0.5-1.5-1-2.2-1.5
		c-5.6,2.6-11.1,5.4-17,7c-3.8,1.1-7.7,1.9-11.5,3.1c-2.5,2-5.1,3.8-7.9,5.3c-3.6,2-7.4,2.9-11.2,3c-3.7,3.3-7.3,6.6-10.8,10
		c-6,5.9-11.9,11.8-18.2,17.4c-15.4,13.6-35.6,30.1-57.5,28.9c-11.5-0.6-21-8.3-22.6-19.9c-1.3-9.7,3.2-17.4,10.5-22.2
		c0.5-1,1.1-2,1.6-3c2.4-6.6,4.7-13.4,7.7-19.7c2.4-5.1,5.7-9.8,8.2-14.8c0.6-1.1,1.1-2.2,1.6-3.3c0.2-0.5,0.4-1,0.6-1.5
		c0.9-2.5,1.7-5.1,2.4-7.7c0.8-2.9,1.4-5.8,1.9-8.7c0.1-0.4,0.1-0.9,0.2-1.3c0.1-1.3,0.3-2.5,0.4-3.8c0.5-5.9,0.8-11.9,1.2-17.8
		c0.7-12.3,0.8-24.4-0.1-36.7c0-0.2-0.1-0.4-0.1-0.6c-0.2-1.4-0.5-2.8-0.8-4.1c-0.5-2.1-1-4.1-1.6-6.1c-2.6-4.7-5.3-9.3-8.3-13.8
		c-1.4-2.2-2.4-4.5-2.8-6.9c-0.3-1.1-0.5-2.2-0.6-3.3c-0.2-0.2-0.4-0.4-0.5-0.5c-0.5-0.1-0.9-0.3-1.4-0.4
		c-6.6-1.6-13.3-2.8-19.7-5.1c-7.1-2.6-12.3-7.3-14.9-13.5c-13.8-7.7-27-17-39.5-26.3c-2.6-0.9-5.1-2.1-7.6-3.5
		c-19.5-11.6-11.3-42.8,11.6-42.8h4.9c3.2,0,6.3,0.7,9,1.9c3.2,0.6,6.5,1.2,9.7,1.8c7.5-0.3,14.8-0.9,22.3-0.7
		c10.5,0.4,20.9,0.9,31.4,1.2c10.3-1.4,20.8-2.3,31-3c0.4-0.1,0.8-0.1,1.2-0.2c1.7-0.3,3.3-0.5,5-0.8c3.2-0.6,6.5-1.3,9.6-2.1
		c3-0.8,5.9-1.8,8.9-2.8c0.2-0.1,0.4-0.2,0.6-0.3c1.3-0.7,2.7-1.4,4-2.1c2.1-1.3,6-5.2,0.8-0.2c1-1,2.2-1.9,3.3-2.9
		c0.6-0.6,1.2-1.4,1.8-2.1c0.1-0.2,0.3-0.4,0.4-0.6c0.6-1,1.5-2.3,2.2-3.6c0-0.3,0.1-0.7,0.2-1.1c0.3-1.1,0.7-2.1,1-3.2
		c1.3-4.3,2.2-8.8,3.1-13.2c1.8-9.6,3.5-19,6.5-28.3c3.1-9.6,6.7-19.1,9.8-28.8c2.6-8.1,4.9-16.1,6.9-24.3c2.1-9,4.7-18.5,9.8-26.3
		c9.2-14.1,30.8-15.6,39.7,0c7.2,12.8,9.8,27.2,11.5,41.6c1.8,1.6,3.5,3.5,4.7,5.7c10,17.6,21.2,34.1,25.3,53.6
		c3.2,4.8,6.5,9.6,9.9,14.3c1.6,2.3,3.3,4.6,4.9,6.9c0.1,0.2,0.3,0.4,0.4,0.6c0.3,0.4,0.6,0.7,0.9,1.1c3.5,4.2,7.3,8.2,11.3,12
		c2.1,2,4.2,3.9,6.4,5.7c0.6,0.5,4.4,4,1.5,1.3c-2.7-2.6,0.8,0.5,1.6,1c1.2,0.8,2.5,1.6,3.7,2.3c18.1-7.4,39-7.4,58.6-7.7
		c10.5-0.2,21-1.1,31.5-1.5c13.5-0.5,28.9,0.3,40.5,8C544,202.1,545.7,218.1,535.7,229.7z"/>
</g>
<g id="Слой_1">
	<g id="Слой_2_1_">
	</g>
	<g id="Capa_1">
		<g>
			<path class="st1" d="M308.5,406.8l144.8,87.4c5.2,3.1,11.6-1.5,10.2-7.4L425.1,322c-0.6-2.5,0.3-5.1,2.2-6.7l128-110.9
				c4.6-4,2.1-11.5-3.9-12l-168.5-14.3c-2.5-0.2-4.7-1.8-5.7-4.1L311.3,18.7c-2.4-5.6-10.2-5.6-12.6,0l-65.9,155.4
				c-1,2.3-3.2,3.9-5.7,4.1L58.6,192.5c-6,0.5-8.5,8-3.9,12l128,110.9c1.9,1.7,2.8,4.3,2.2,6.7l-38.5,164.7
				c-1.4,5.9,5,10.5,10.2,7.4l144.8-87.4C303.6,405.5,306.3,405.5,308.5,406.8z"/>
		</g>
	</g>
	<path class="st1" d="M-68.3,72.5"/>
</g>
</svg>
