<?xml version="1.0" encoding="utf-8"?>
<!-- Generator: Adobe Illustrator 25.2.0, SVG Export Plug-In . SVG Version: 6.00 Build 0)  -->
<svg version="1.1" id="Слой_1" xmlns="http://www.w3.org/2000/svg" xmlns:xlink="http://www.w3.org/1999/xlink" x="0px" y="0px"
	 viewBox="0 0 25 25" style="enable-background:new 0 0 25 25;" xml:space="preserve">
<style type="text/css">
	.st0{fill:#FD5C63;}
</style>
<path id="Shape" class="st0" d="M21.3,2.8c-1.3-0.1-5.8-0.4-8.2-2.5C12.8,0,12.3,0,12,0.3C9.5,2.4,5,2.7,3.7,2.8
	c-0.4,0-0.8,0.4-0.8,0.8v6.8c0,6.2,3.6,11.9,9.2,14.6c0.2,0.1,0.5,0.1,0.7,0c5.6-2.7,9.2-8.3,9.2-14.6V3.6
	C22.1,3.1,21.7,2.8,21.3,2.8L21.3,2.8z M21.2,10.4c0,5.9-3.4,11.3-8.8,13.8c-5.3-2.5-8.7-7.9-8.7-13.8V3.6c1.4-0.1,6.1-0.4,8.8-2.7
	c2.6,2.3,7.4,2.7,8.7,2.7V10.4z"/>
<path id="Shape_1_" class="st0" d="M12,1.1C9.4,2.7,6.1,3.2,3.8,3.4C3.4,3.4,3,3.9,3,4.3v5.8c0,5.9,3.5,11.2,9,14
	c0.4,0.1,0.7,0.1,1,0c5.5-2.8,9-8.2,9-14V4.3c0-0.4-0.4-0.9-0.8-0.9c-2.3-0.2-5.5-0.8-8-2.3C12.7,0.9,12.3,0.9,12,1.1z M21,4.3v5.8
	c0,5.6-3.2,10.6-8.5,13.3l0.2,0.4l-0.2-0.4C7.2,20.7,4,15.7,4,10.1V4.3c2.4-0.2,5.8-0.9,8.5-2.4C15.1,3.5,18.6,4.1,21,4.3L21,4.3z"
	/>
<path id="Shape_3_" class="st0" d="M12.2,4.6v1.7c-0.5,0-1.2,0.3-1.7,0.4l-0.3-0.5C10.1,6,10,5.9,9.7,5.9S9.3,6,9.2,6.1
	c-0.1,0.1-0.1,0.4,0,0.5l0.3,0.5C9.1,7.5,8.7,7.9,8.3,8.3L7.8,8C7.7,7.9,7.6,7.9,7.3,8C7.2,8.2,7,8.3,7,8.6c0,0.1,0.1,0.4,0.3,0.5
	l0.5,0.3c-0.3,0.5-0.4,1-0.4,1.7H6.3c-0.3,0-0.5,0.3-0.5,0.5S6,12,6.3,12h1.2c0,0.5,0.3,1.2,0.4,1.7l-0.5,0.3
	C7.2,14.1,7,14.2,7,14.5c0,0.1,0.1,0.4,0.3,0.5c0.1,0.1,0.4,0.1,0.5,0l0.5-0.3c0.4,0.5,0.8,0.9,1.2,1.2l-0.3,0.5
	c-0.1,0.1-0.1,0.4,0,0.5c0.1,0.1,0.3,0.3,0.5,0.3c0.1,0,0.4-0.1,0.5-0.3l0.3-0.5c0.5,0.3,1,0.4,1.7,0.4v1.2c0,0.3,0.3,0.5,0.5,0.5
	c0.3,0,0.5-0.3,0.5-0.5v-1.2c0.5,0,1.2-0.3,1.7-0.4l0.3,0.5c0.1,0.1,0.3,0.3,0.5,0.3c0.1,0,0.4-0.1,0.5-0.3c0.1-0.1,0.1-0.4,0-0.5
	l-0.3-0.5c0.5-0.4,0.9-0.8,1.2-1.2l0.5,0.3c0.1,0.1,0.4,0.1,0.5,0s0.3-0.3,0.3-0.5c0-0.1-0.1-0.4-0.3-0.5l-0.5-0.3
	c0.3-0.5,0.4-1,0.4-1.7h1.2c0.3,0,0.5-0.3,0.5-0.5S19.4,11,19.1,11H18c0-0.5-0.3-1.2-0.4-1.7l0.5-0.3c0.1-0.1,0.3-0.3,0.3-0.5
	c0-0.1-0.1-0.4-0.3-0.5c-0.1-0.1-0.4-0.1-0.5,0l-0.5,0.3c-0.4-0.5-0.8-0.9-1.2-1.2l0.3-0.5c0.1-0.1,0.1-0.4,0-0.5s-0.3-0.3-0.5-0.3
	c-0.1,0-0.4,0.1-0.5,0.3l-0.3,0.5c-0.5-0.3-1-0.4-1.7-0.4V4.6c0-0.3-0.3-0.5-0.5-0.5S12.2,4.2,12.2,4.6L12.2,4.6z M16.9,11.5
	c0,2.3-1.9,4.2-4.2,4.2s-4.2-1.9-4.2-4.2s1.9-4.2,4.2-4.2C15,7.1,16.9,9.1,16.9,11.5z"/>
<circle id="Oval" class="st0" cx="11.3" cy="10.4" r="0.4"/>
<circle id="Oval_1_" class="st0" cx="11.7" cy="13.3" r="0.4"/>
<circle id="Oval_2_" class="st0" cx="13.7" cy="11.3" r="0.4"/>
<path id="Shape_2_" class="st0" d="M12.2,1.8C9.7,3.3,6.7,3.8,4.6,4C4.1,4,3.8,4.4,3.8,4.8v5.4c0,5.5,3.2,10.5,8.4,13.1
	c0.3,0.1,0.7,0.1,0.9,0c5.1-2.6,8.4-7.7,8.4-13.1V4.8c0-0.4-0.3-0.8-0.8-0.8c-2.1-0.2-5.1-0.7-7.5-2.2C12.9,1.6,12.4,1.6,12.2,1.8z
	 M20.6,4.8v5.4c0,5.2-3,9.8-7.9,12.3l0.2,0.4l-0.2-0.4c-4.9-2.5-7.9-7.2-7.9-12.3V4.8c2.2-0.2,5.4-0.8,7.9-2.3
	C15.1,4.1,18.4,4.6,20.6,4.8L20.6,4.8z"/>
</svg>
